<?xml version="1.0" standalone="no"?>
<!DOCTYPE svg PUBLIC "-//W3C//DTD SVG 1.1//EN" "http://www.w3.org/Graphics/SVG/1.1/DTD/svg11.dtd" >
<!--
2013-9-30: Created.
-->
<svg>
<metadata>
Created by iconfont
</metadata>
<defs>

<font id="uzfont" horiz-adv-x="1024" >
  <font-face
    font-family="uzfont"
    font-weight="500"
    font-stretch="normal"
    units-per-em="1024"
    ascent="896"
    descent="-128"
  />
    <missing-glyph />
    
    <glyph glyph-name="youqinglianjie" unicode="&#58934;" d="M894.528 745.6a195.072 195.072 0 0 1-270.912 52.288L359.424 619.008a195.072 195.072 0 0 1-52.16-270.912c56.768-83.904 167.04-108.288 254.208-60.736l-0.384 0.832c1.92 0.896 3.904 1.216 5.76 2.432a34.496 34.496 0 1 1-35.52 59.2H531.2l-0.448 0.768c-57.344-34.56-128.64-24.128-166.656 32.064a127.552 127.552 0 0 0 34.112 177.152l258.816 175.168a127.552 127.552 0 0 0 177.152-34.112c39.488-58.368 26.816-127.488-31.552-166.976l-39.488-27.52a35.392 35.392 0 1 1 39.68-58.624c0.32 0.192 0.448 0.576 0.768 0.768l38.72 26.176a195.072 195.072 0 0 1 52.224 270.912zM453.888 484.672l0.448-0.832c-1.92-0.896-3.968-1.28-5.76-2.56a34.496 34.496 0 1 1 36.992-58.24l0.064-0.128 0.512-0.64c56.448 35.968 128 27.264 167.424-28.032 40.96-57.344 27.584-136.96-29.76-177.92L369.28 34.816c-57.344-40.896-136.96-27.52-177.92 29.76-40.896 57.344-29.952 126.784 27.456 167.68l38.784 28.544a35.392 35.392 0 1 1-41.088 57.6c-0.32-0.192-0.448-0.576-0.768-0.768l-38.08-27.136a195.072 195.072 0 0 1 226.56-317.632l259.712 185.28a195.072 195.072 0 0 1 45.504 272.128c-58.816 82.432-169.6 104.064-255.616 54.4z"  horiz-adv-x="1024" />

    
    <glyph glyph-name="jiance" unicode="&#58971;" d="M1012.5 115.6V824.5H10.7v-708.9h376.1V-2h-103v-54.1h475.6v54.2h-99.5V115.6h352.6zM64.9 770.3h893.4v-600.4H64.9V770.3z m540.9-772.2H441.1V115.6h164.7v-117.5z m0 0M631.7 670.6l-45.2-249.8-82.8-1.7-14-41.7-104.3 264.4-82-232.9-6.5-27.6-18.2 45.6H130.1v-54.2H242L310.5 201l44.6 191 33.3 94.5 105.4-267.3L543 365.7l89 1.9 16.3 90.2 30.4-86.8 203.6-2 0.6 54.2-165.7 1.6-85.5 245.8z m0 0"  horiz-adv-x="1024" />

    
    <glyph glyph-name="wenjianjia" unicode="&#58888;" d="M861.39904 56.07936c0-30.90944-25.06752-55.87456-55.92576-55.87456H106.77248l97.8432 461.12768c0 30.87872 24.91904 55.90528 55.77728 55.90528h642.92352c30.85312 0 55.82848-25.02656 55.82848-55.90528l-97.74592-405.25312zM218.5216 559.18592h628.86912V614.07744c0 30.87872-25.07264 55.90528-55.87968 55.90528h-335.36V720.64c0 30.82752-25.03168 55.87456-55.87968 55.87456H120.7296c-30.85312 0-55.87968-25.05216-55.87968-55.87456v-664.56064l97.75104 447.17568c0 30.87872 25.06752 55.93088 55.92064 55.93088z"  horiz-adv-x="1024" />

    
    <glyph glyph-name="daoru" unicode="&#58945;" d="M304.7 63.5c-36.3 0-47.8 30.8-64.6 60.6-18.6 33-95.4 155.4-95.4 155.4 0 20.7 17.8 37.5 39.8 37.5l449.5 0.6c32.3 0 46.2-30.3 55.4-52l105.6-202H304.7m367.5 281.4c22 0 35.6-25.1 47.9-47.7L824.8 100.9V493.6c0 20.7-17.8 37.5-39.8 37.5H585.9c-22 0-39.8-16.8-39.8-37.5v-33.9l-226-0.7c-32.5 0-43.4-20.9-55.4-40.4l-40.4-73.5 447.9-0.1zM427.4 621.4C423.5 799.6 541.2 792 618.4 746.6c-113.7 112-295.7 88.2-290.5-125.2h-93l143.8-153.2 143.8 153.2h-95.1z"  horiz-adv-x="1024" />

    
    <glyph glyph-name="daoru1" unicode="&#58928;" d="M528.8 757.24V888L8 750.968v-660.8l520.8-137.032V83.84h384.16v673.4H528.8m0-490.896h97.44v-81.816H528.8V266.4m0 132.16h97.44v-81.76H528.8v81.816m0 132.16h97.44v-81.816H528.8v81.816m0 132.16h97.44v-81.816H528.8v81.816m158.48-396.48H808.8v-81.816H687.28V266.4m0 132.16H808.8v-81.76H687.28v81.816m0 132.16H808.8v-81.816H687.28v81.816m0 132.16H808.8v-81.816H687.28v81.816m-478.8-104.72l63.28-96.6 66.08 102.704 54.32 2.52-91.84-141.512 98.56-152.264-59.36 2.8-69.44 111.104-70.56-104.496-56 2.632 99.12 140-92.4 130.312 58.24 2.688m0 0zM1016-70.552H800.4v80.024H1016v-80.024z m-318.64 38.528l103.04 93.856V-120l-103.04 87.976z"  horiz-adv-x="1024" />

    
    <glyph glyph-name="wenjianjia1" unicode="&#58915;" d="M1154.288941 564.705882h-49.995294v180.705883H532.359529L432.007529 885.940706H54.814118a54.934588 54.934588 0 0 1-54.874353-54.814118V-46.08c0-11.264 3.553882-22.347294 10.601411-31.623529 9.818353-12.830118 24.696471-20.178824 40.899765-20.178824h898.710588c23.190588 0 43.610353 15.661176 49.152 36.382118L1204.705882 501.458824v3.614117c0 34.514824-21.202824 59.632941-50.416941 59.632941z m-90.112 140.528942V564.705882H903.529412v60.235294a20.058353 20.058353 0 1 1-40.176941 0v-60.235294h-100.352v60.235294a20.058353 20.058353 0 1 1-40.176942 0v-60.235294h-100.412235v60.235294a20.058353 20.058353 0 1 1-40.116706 0v-60.235294H481.882353v60.235294a20.058353 20.058353 0 1 1-40.176941 0v-60.235294H341.353412v60.235294A20.058353 20.058353 0 1 1 301.176471 624.941176v-60.235294h-45.537883a50.597647 50.597647 0 0 1-49.212235-36.382117l-6.384941-17.468236-99.629177-273.287529V584.764235h120.470589v120.470589h843.294117zM128.783059 624.941176L180.705882 676.864V624.941176h-51.922823zM60.235294 811.670588c0 8.131765 1.927529 5.963294 9.456941 11.023059h328.101647l55.416471-77.281882H192.391529L69.692235 616.508235v-474.955294L60.235294 106.315294V811.670588z m868.954353-842.812235c-0.903529-3.312941-285.635765-3.312941-854.136471 0L273.528471 495.435294h-13.673412c1.144471 3.975529-74.209882-179.742118-226.063059-551.152941l895.337412 24.576z"  horiz-adv-x="1204" />

    
    <glyph glyph-name="xiazai" unicode="&#59103;" d="M512-128C229.2224-128 0 101.2224 0 384S229.2224 896 512 896s512-229.2224 512-512-229.2224-512-512-512z m76.8 768h-153.6a51.2 51.2 0 0 1-51.2-51.2v-204.8H316.16a51.2 51.2 0 0 1-36.1984-87.3984l195.84-195.84a51.2 51.2 0 0 1 72.3968 0l195.84 195.84A51.2 51.2 0 0 1 707.84 384H640V588.8a51.2 51.2 0 0 1-51.2 51.2z"  horiz-adv-x="1024" />

    
    <glyph glyph-name="suo-suoshang" unicode="&#59029;" d="M755.71778 421.930386h-21.433678c0 55.510818 0 174.720602-0.120414 176.526811-3.612418 126.795861-102.83349 222.163688-224.571966 222.163687-124.146754 0-224.69238-99.221072-224.692381-229.508937v-169.301975h-16.496707c-42.024459 0-76.222013-34.07714-76.222013-76.101599v-322.5889c0-42.024459 34.07714-75.981185 76.222013-75.981185h487.194732c42.024459 0 76.222013 34.07714 76.222013 75.981185v322.709313c0 42.144873-34.07714 76.101599-76.101599 76.1016zM544.150517 186.761994v-84.650987c0-17.700847-14.449671-32.030103-32.030103-32.030104-17.700847 0-32.030103 14.449671-32.030104 32.030104V186.761994c-19.145814 11.078081-32.030103 31.789276-32.030103 55.510819 0 35.522107 28.778928 64.180621 64.180621 64.180621 35.522107 0 64.180621-28.778928 64.180621-64.180621-0.240828-23.721543-13.125118-44.432738-32.270932-55.510819zM349.200376 421.930386V593.520226c0 88.624647 71.766698 160.391345 160.391346 160.391345 86.095955 0 156.417686-70.080903 160.270931-155.454374 0.120414-1.806209 0.120414-121.015992 0.120414-176.526811H349.200376z"  horiz-adv-x="1024" />

    
    <glyph glyph-name="guanbi" unicode="&#59002;" d="M7.669378 383.997444c0-282.769964 227.197651-511.997444 507.457172-511.997444 280.269746 0 507.457172 229.22748 507.457172 511.997444S795.396296 896 515.12655 896C234.867029 896 7.669378 666.767407 7.669378 383.997444zM793.678355 662.86625c15.08311-14.883706 15.08311-40.913575 0-55.802393l-509.594371-502.063043c-15.108674-14.853029-41.532238-14.853029-56.6358 0-15.08311 14.878593-15.08311 40.918688 0 55.802394l509.589259 502.063042c15.108674 14.858141 41.537351 14.858141 56.640912 0zM236.58497 655.176421c14.658738 14.408205 40.294912 14.408205 54.953649 0l494.45502-486.836771c14.62806-14.433769 14.62806-39.681361 0-54.110018-14.658738-14.403092-40.294912-14.403092-54.958762 0L236.58497 601.066403c-14.633173 14.438882-14.633173 39.681361 0 54.110018z"  horiz-adv-x="1024" />

    
    <glyph glyph-name="shangchuan" unicode="&#58944;" d="M894.702304 896H334.097696c-71.727189 0-129.297696-57.570507-129.297696-129.297696v-75.502304h-75.502304C57.570507 691.2 0 633.629493 0 561.902304v-560.604608c0-71.727189 57.570507-129.297696 129.297696-129.297696h560.604608c71.727189 0 129.297696 57.570507 129.297696 129.297696v75.502304h75.502304c71.727189 0 129.297696 57.570507 129.297696 129.297696V766.702304c0 71.727189-58.514286 129.297696-129.297696 129.297696zM741.810138 1.297696c0-29.257143-23.59447-51.907834-51.907834-51.907834H129.297696c-29.257143 0-51.907834 23.59447-51.907834 51.907834V561.902304c0 29.257143 23.59447 51.907834 51.907834 51.907834H688.958525c29.257143 0 51.907834-23.59447 51.907834-51.907834V1.297696z m204.8 204.8c0-29.257143-23.59447-51.907834-51.907834-51.907834h-75.502304V561.902304c0 71.727189-57.570507 129.297696-129.297696 129.297696H281.246083v75.502304c0 29.257143 23.59447 51.907834 51.907834 51.907834h560.604608c29.257143 0 51.907834-23.59447 51.907834-51.907834v-560.604608zM321.828571 116.43871L249.157604 188.165899l-132.129033-132.129033 584.199079-0.943778-220.84424 220.844239zM258.595392 299.531797c29.257143 0 53.795392 24.538249 53.795391 53.795392 0 18.875576-10.381567 36.807373-27.369585 46.245161-16.988018 9.437788-36.807373 9.437788-53.795392 0-16.988018-9.437788-27.369585-27.369585-27.369585-46.245161 0.943779-29.257143 25.482028-53.795392 54.739171-53.795392z"  horiz-adv-x="1024" />

    
    <glyph glyph-name="xiazai1" unicode="&#59044;" d="M514.6624 103.2192c-19.456 0-32.4608 13.0048-32.4608 32.4608V476.0576c0 19.456 13.0048 32.4608 32.4608 32.4608s32.4608-13.0048 32.4608-32.4608v-340.3776c0-16.2816-13.0048-32.4608-32.4608-32.4608z m0 0M514.6624 96.768c-9.728 0-16.1792 3.2768-22.7328 9.728l-94.0032 94.0032c-13.0048 13.0048-13.0048 32.4608 0 45.3632 13.0048 13.0048 32.4608 13.0048 45.3632 0l71.2704-71.2704 71.2704 71.2704c13.0048 13.0048 32.4608 13.0048 45.3632 0 13.0048-13.0048 13.0048-32.4608 0-45.3632L537.3952 106.496c-6.5536-6.4512-13.0048-9.728-22.7328-9.728z m0 0M786.944 74.0352H608.6656c-19.456 0-32.4608 13.0048-32.4608 32.4608s13.0048 32.4608 32.4608 32.4608h178.2784c90.7264 0 165.376 74.5472 165.376 165.376 0 90.7264-74.5472 165.376-165.376 165.376-29.184 0-55.0912-6.4512-77.824-19.456-9.728-6.4512-22.7328-6.4512-32.4608 0S660.48 466.432 660.48 479.4368c0 84.2752-68.096 149.0944-149.0944 149.0944-68.096 0-129.6384-45.3632-145.92-113.4592-3.2768-9.728-6.4512-16.1792-16.1792-19.456-6.4512-3.2768-16.1792-6.4512-25.9072-3.2768-9.728 3.2768-22.7328 3.2768-32.4608 3.2768-71.2704 0-129.6384-58.368-129.6384-129.6384 0-13.0048-9.728-25.9072-22.7328-29.184-35.6352-16.1792-64.8192-55.0912-64.8192-97.28 0-55.0912 45.3632-100.4544 100.4544-100.4544h201.0112c19.456 0 32.4608-13.0048 32.4608-32.4608s-13.0048-32.4608-32.4608-32.4608H177.4592c-94.0032 0-168.5504 74.5472-168.5504 165.376 0 64.8192 35.6352 119.9104 90.7264 149.0944 9.728 97.28 94.0032 171.8272 191.2832 171.8272h19.456c32.4608 80.896 110.2848 132.8128 197.8368 132.8128 100.4544 0 188.0064-71.2704 207.4624-168.5504 22.7328 6.4512 45.3632 9.728 68.096 9.728 126.464 0 230.1952-103.7312 230.1952-230.1952 3.1744-126.464-100.5568-230.1952-227.0208-230.1952z m0 0"  horiz-adv-x="1024" />

    
    <glyph glyph-name="daoru2" unicode="&#58890;" d="M1136.522971 516.154514l8.572343 7.168 1.404343 12.288a34.523429 34.523429 0 0 1-9.976686 25.336686C1087.780571 615.0144 834.121143 866.625829 534.469486 635.640686l-73.5232 87.625143a44.938971 44.938971 0 0 1-28.496457 18.753828c-17.554286 2.633143-33.938286-6.933943-44.383086-28.203886l-2.4576-4.827428-14.482286-313.051429c-0.146286-6.5536 0.585143-35.4304 17.495772-55.588571 17.759086-21.182171 50.088229-24.839314 56.173714-25.278172l319.926857-50.556342c7.899429-0.936229 25.629257-1.667657 38.560914 9.186742 10.064457 8.660114 14.394514 22.235429 11.234743 35.108572-1.989486 9.4208-7.314286 18.900114-16.530286 29.842286l-89.146514 106.261942c45.845943 40.521143 191.019886 145.788343 392.864914 67.408458 13.165714-5.090743 25.863314-3.6864 34.816 3.803428zM371.0976 395.907657l14.482286 313.051429 2.4576 4.827428c3.510857 7.460571 8.513829 14.1312 14.7456 19.573029 8.133486 7.138743 19.017143 10.298514 29.725257 8.630857 15.067429-2.2528 24.634514-13.399771 28.496457-18.724571l73.552457-87.712915c299.6224 231.043657 553.252571-20.567771 602.024229-74.605714 6.670629-6.729143 10.269257-15.915886 9.976685-25.365943l-1.375085-12.346514-8.543086-7.168c-9.0112-7.5776-21.679543-8.923429-34.816-3.803429-192.833829 74.839771-333.882514-17.759086-386.135771-61.615543l-6.787658-5.851428 89.146515-106.261943c9.186743-10.942171 14.570057-20.392229 16.530285-29.842286 3.189029-12.873143-1.170286-26.477714-11.234742-35.108571-12.960914-10.8544-30.661486-10.122971-38.560915-9.186743l-319.926857 50.644114c-6.144 0.497371-38.414629 4.096-56.173714 25.278172-16.910629 20.158171-17.642057 49.034971-17.554286 55.588571z m78.613943-14.5408l2.808686-0.234057 2.779428-0.438857 254.332343-40.228572-93.330286 111.177143 48.566857 42.920229 8.104229 6.9632c46.928457 39.380114 156.320914 113.312914 307.463314 105.033143-96.782629 60.913371-242.307657 101.9904-405.269943-23.639772l-50.527085-38.941257-75.9808 90.5216-11.029943-238.738286c-0.058514-4.681143 1.053257-10.357029 0.380343-10.912914l-0.175543-0.087771c3.715657-1.784686 7.753143-2.925714 11.8784-3.393829zM974.789486 403.426743c-18.344229 0-33.236114-14.862629-33.236115-33.206857V4.827429a66.472229 66.472229 0 0 0-66.501485-66.413715h-731.428572a66.472229 66.472229 0 0 0-66.472228 66.413715V735.553829a66.472229 66.472229 0 0 0 66.472228 66.413714h365.714286a33.236114 33.236114 0 1 1 0 66.442971H143.652571a133.061486 133.061486 0 0 1-132.973714-132.827428V4.827429A133.061486 133.061486 0 0 1 143.623314-128h731.428572a133.061486 133.061486 0 0 1 133.002971 132.856686V370.219886c0 18.344229-14.921143 33.206857-33.265371 33.206857z"  horiz-adv-x="1170" />

    
    <glyph glyph-name="guanbi1" unicode="&#58969;" d="M512-64C264.6-64 64 136.6 64 384S264.6 832 512 832s448-200.6 448-448-200.6-448-448-448z m0 59.7c214.4 0 388.3 173.8 388.3 388.3S726.4 772.3 512 772.3 123.7 598.4 123.7 384 297.6-4.3 512-4.3zM660.8 278.4c11.9-11.9 11.9-31.2 0-43.1-11.9-11.9-31.2-11.9-43.1 0l-99.6 99.6-99.6-99.6c-11.9-11.9-31.2-11.9-43.1 0-11.9 11.9-11.9 31.2 0 43.1L475 378l-99.6 99.6c-11.9 11.9-11.9 31.2 0 43.1 11.9 11.9 31.2 11.9 43.1 0l99.6-99.6 99.6 99.6c11.9 11.9 31.2 11.9 43.1 0 11.9-11.9 11.9-31.2 0-43.1L561.2 378l99.6-99.6z"  horiz-adv-x="1024" />

    
    <glyph glyph-name="guanbi2" unicode="&#58881;" d="M139.43164062 384C139.43164062 590.05957031 306.3359375 756.96386719 512 756.96386719s372.56835938-166.90429688 372.56835938-372.56835938V384A372.17285156 372.17285156 0 0 0 512 11.431640620000053C305.94042969 11.431640620000053 139.43164062 178.3359375 139.43164062 384z m397.48535157 0l130.12207031 130.12207031a16.93492536 16.93492536 0 0 1 0 24.12597657l-0.79101562 0.79101562a16.93492536 16.93492536 0 0 1-24.12597657 0L512 408.52148438l-130.12207031 130.51757812a16.93492536 16.93492536 0 0 1-24.12597657 0l-0.79101562-0.79101563a16.93492536 16.93492536 0 0 1 0-24.12597656l130.12207031-130.51757812-130.12207031-130.12207032a16.93492536 16.93492536 0 0 1 0-24.12597656l0.79101563-0.79101562a16.93492536 16.93492536 0 0 1 24.12597656 0L512 358.6875l130.12207031-130.12207031a16.93492536 16.93492536 0 0 1 24.12597657 0l0.79101562 0.79101562a16.93492536 16.93492536 0 0 1 0 24.12597656L536.91699219 384z"  horiz-adv-x="1024" />

    
    <glyph glyph-name="daoru3" unicode="&#59017;" d="M865.865143 868.571429A129.097143 129.097143 0 0 0 994.742857 739.657143v-711.314286a129.097143 129.097143 0 0 0-128.914286-128.914286H162.230857A129.097143 129.097143 0 0 0 33.28 28.342857v490.422857h59.611429v-490.422857c0-38.217143 31.085714-69.339429 69.302857-69.339428h703.634285c38.253714 0 69.376 31.122286 69.376 69.339428V739.657143c0 38.217143-31.085714 69.339429-69.339428 69.339428h-314.770286V868.571429h314.770286zM305.078857 482.852571H225.499429l201.142857-248.100571c4.461714-5.485714 10.093714-5.485714 14.518857 0l201.142857 248.100571h-95.049143c-21.796571 0.073143-31.744 17.042286-31.744 32.804572V561.261714c0 0.585143 0 1.170286 0.073143 1.792 0.402286 7.277714 8.192 179.017143-190.902857 228.681143a27.318857 27.318857 0 0 0-1.792 0.512c-0.475429 0.146286-46.884571 14.701714-125.842286 17.590857a319.195429 319.195429 0 0 0 33.828572-22.674285 284.342857 284.342857 0 0 0 45.897142-43.958858 277.101714 277.101714 0 0 0 37.778286-59.245714c5.376-11.410286 10.093714-23.442286 14.006857-35.730286 4.096-12.8 7.460571-26.221714 9.947429-39.936 2.596571-14.189714 4.388571-29.074286 5.302857-44.251428 0.914286-15.579429 0.950857-31.926857 0.073143-48.603429-0.768-14.226286-9.216-31.268571-30.537143-32.548571a86.674286 86.674286 0 0 0-6.582857-0.036572h-1.682286zM54.491429 802.486857a27.062857 27.062857 0 0 0-1.974858 53.833143c166.363429 22.930286 274.432-8.594286 286.208-12.251429 126.061714-31.670857 182.308571-107.044571 207.250286-164.681142 25.234286-58.148571 24.137143-109.238857 23.698286-118.893715v-23.478857h79.835428c24.795429 0 43.702857-9.801143 51.894858-26.953143 3.657143-7.643429 9.984-28.013714-9.508572-52.077714l-208.64-257.353143a63.780571 63.780571 0 0 0-49.371428-24.429714 63.780571 63.780571 0 0 0-49.298286 24.429714L175.908571 457.984c-19.529143 24.064-13.165714 44.434286-9.508571 52.077714 8.155429 17.152 27.062857 26.953143 51.894857 26.953143h72.009143c0.036571 8.118857-0.146286 16.091429-0.621714 23.808A315.062857 315.062857 0 0 1 285.257143 598.528a267.995429 267.995429 0 0 1-8.228572 33.206857 225.133714 225.133714 0 0 1-41.801142 76.8 228.205714 228.205714 0 0 1-37.302858 35.693714 263.350857 263.350857 0 0 1-40.484571 25.636572 309.869714 309.869714 0 0 1-39.314286 17.042286 332.836571 332.836571 0 0 1-46.665143 12.836571 276.955429 276.955429 0 0 1-16.932571 2.742857z"  horiz-adv-x="1024" />

    
    <glyph glyph-name="kaiqi" unicode="&#59040;" d="M868.571 486.857H505.143V624c0 123.429-96 219.429-219.429 219.429-123.428 0-219.428-96-219.428-219.429v-144h82.285V624c0 75.429 61.715 137.143 137.143 137.143S422.857 699.429 422.857 624v-137.143H299.43c-34.286 0-61.715-27.428-61.715-54.857v-404.571c0-27.429 27.429-54.858 54.857-54.858h576c27.429 0 54.858 27.429 54.858 54.858V432c0 27.429-20.572 54.857-54.858 54.857zM614.857 212.571v-89.142c0-6.858 0-6.858-6.857-6.858h-48c-6.857 0-6.857 0-6.857 6.858V212.57C532.57 226.286 512 246.857 512 274.286c0 41.143 27.429 68.571 68.571 68.571s68.572-34.286 68.572-68.571c6.857-27.429-13.714-48-34.286-61.715z"  horiz-adv-x="1024" />

    
    <glyph glyph-name="upload" unicode="&#58882;" d="M483.2 342.4l-51.2-38.4c-6.4-6.4-25.6-6.4-32 6.4-12.8 12.8-6.4 25.6 6.4 32l96 70.4c6.4 6.4 19.2 6.4 32 0l96-70.4c0-6.4 6.4-19.2-6.4-32-6.4-6.4-12.8-12.8-19.2-12.8-6.4 0-12.8 0-12.8 6.4l-57.6 39.872v-298.816c0-14.528-6.4-29.056-25.6-29.056-12.8 0-25.6 14.528-25.6 29.056V342.4z m-204.8-256h-19.2c-115.2 0-204.8 102.4-204.8 224 0 128 96 230.4 211.2 224 38.4 128 147.2 217.6 268.8 217.6 134.4 0 249.6-102.4 281.6-249.6 89.6-19.2 153.6-102.4 153.6-204.8 0-115.2-83.2-211.2-185.6-211.2-32 0-96 0-166.4 57.6-12.8 12.8-12.8 32 0 38.4 12.8 12.8 25.6 12.8 38.4 0 51.2-51.2 96-44.8 121.6-44.8h6.4c76.8 0 134.4 70.4 134.4 160 0 83.2-57.6 153.6-128 160-12.8 0-19.2 12.8-25.6 19.2-19.2 128-115.2 224-230.4 224-102.4 0-198.4-83.2-224-198.4 0-12.8-12.8-19.2-32-19.2h-25.6c-83.2 0-147.2-76.8-147.2-172.8 0-96 64-172.8 147.2-172.8h12.8c25.6 0 57.6 0 102.4 44.8 12.8 12.8 25.6 12.8 38.4 0 12.8-12.8 12.8-25.6 0-38.4-51.2-51.2-96-57.6-128-57.6z"  horiz-adv-x="1024" />

    
    <glyph glyph-name="uikit" unicode="&#58982;" d="M755.072 755.541333l-175.317333-106.197333 202.154666-115.029333v-301.952l-271.573333-150.954667-267.008 150.954667v234.026666L68.096 556.544V128l436.010667-256 451.797333 256V639.914667l-200.832 115.626666z m-81.237333 42.197334L504.021333 896 327.04 786.432l172.032-94.634667 174.762667 105.941334z"  horiz-adv-x="1024" />

    
    <glyph glyph-name="count" unicode="&#58921;" d="M978.412 530.985c-59.694 59.694-156.818 59.694-216.412 0l-69.176-69.175c-12.477-12.478-12.477-32.741 0-45.22 12.479-12.477 32.741-12.477 45.219 0l69.176 69.177c34.738 34.737 91.336 34.737 126.074 0 16.77-16.771 25.954-39.13 25.954-63.087 0-23.958-9.185-46.316-25.954-63.086L835.47 261.77c-16.771-16.771-39.132-25.953-63.087-25.953-23.959 0-46.317 9.183-63.087 25.953-10.183 10.182-17.469 22.26-21.861 35.936-5.29 16.868-23.258 26.153-40.027 20.863-16.87-5.291-26.155-23.26-20.861-40.029 7.284-23.257 20.361-44.72 37.53-61.988 28.85-28.849 67.279-44.719 108.206-44.719s79.457 15.87 108.205 44.719l97.824 97.823c28.849 28.85 44.72 67.279 44.72 108.207 0.098 41.125-15.772 79.556-44.62 108.403zM733.353 159.75400000000002l-69.176-69.176c-34.737-34.739-91.335-34.739-126.074 0-16.77 16.768-25.952 39.128-25.952 63.087 0 23.956 9.183 46.315 25.952 63.085l97.825 97.823c16.77 16.771 39.13 25.954 63.087 25.954s46.315-9.183 63.085-25.954c10.183-10.18 17.471-22.259 21.862-35.935 5.291-16.869 23.257-26.153 40.026-20.862 16.87 5.29 26.153 23.258 20.863 40.029-7.287 23.258-20.363 44.719-37.633 61.987-28.848 28.849-67.277 44.719-108.204 44.719s-79.459-15.871-108.206-44.719l-97.825-97.823c-28.947-28.948-44.82-67.38-44.82-108.406s15.873-79.456 44.72-108.205c29.847-29.847 69.077-44.72 108.206-44.72 39.13 0 78.359 14.873 108.206 44.72l69.175 69.176c12.479 12.478 12.479 32.741 0 45.22-12.477 12.475-32.642 12.475-45.117 0zM671.764-26.812000000000012c-17.669 0-31.943-14.273-31.943-31.942v-4.491H64.854V97.96400000000006c0 157.218 122.978 283.391 279.997 287.383 4.99 0.1 9.981 0.1 14.874 0 37.032-0.899 72.868-8.785 106.608-23.457 16.17-6.988 35.037 0.397 42.024 16.669 6.986 16.171-0.399 35.037-16.67 42.023-4.792 2.097-9.583 3.994-14.375 5.89 75.265 43.322 125.975 124.576 125.975 217.609C603.287 782.732 490.89 895.03 352.338 895.03s-250.95-112.298-250.95-250.949c0-93.033 50.609-174.287 125.874-217.609-47.115-17.869-90.138-46.016-126.272-83.05C36.505 277.44000000000005 0.969 190.19899999999996 0.969 97.96400000000006v-169.396c0-30.645 24.956-55.6 55.601-55.6h591.437c30.644 0 55.601 24.955 55.601 55.6v12.777c0.098 17.57-14.176 31.843-31.844 31.843zM165.273 644.082c0 50.01 19.465 96.926 54.801 132.262 35.338 35.337 82.353 54.802 132.263 54.802s96.926-19.464 132.262-54.802c35.336-35.336 54.802-82.352 54.802-132.262 0-49.911-19.466-96.926-54.802-132.262-35.336-35.337-82.352-54.802-132.262-54.802s-96.925 19.465-132.263 54.802c-35.336 35.336-54.801 82.252-54.801 132.262z"  horiz-adv-x="1024" />

    
    <glyph glyph-name="wxsamll" unicode="&#58963;" d="M518.656 517.8240000000001a46.464 46.464 0 0 1 46.208 46.784 46.464 46.464 0 0 1-46.208 46.656 46.464 46.464 0 0 1-46.208-46.656c0-25.92 20.736-46.72 46.208-46.72m48.256-116.736a46.464 46.464 0 0 1-46.144-46.592c0-25.92 20.736-46.784 46.144-46.784a46.464 46.464 0 0 1 46.208 46.72 46.464 46.464 0 0 1-46.208 46.72M245.312 611.2a46.464 46.464 0 0 1-46.208-46.592c0-25.92 20.736-46.784 46.208-46.784a46.464 46.464 0 0 1 46.144 46.72 46.464 46.464 0 0 1-46.144 46.72M842.368 103.36000000000001l16.576-62.848c1.536-21.056-14.144-10.112-14.144-10.112l-58.688 40.128a291.2 291.2 0 0 0-116.096-23.68c-122.688 0-225.664 73.536-253.76 172.736a197.44 197.44 0 0 0-7.744 54.784c0 125.632 117.056 227.52 261.504 227.52 6.4 0 12.672-0.256 19.008-0.64 135.552-8.448 242.496-106.752 242.496-226.88 0-68.224-34.496-129.408-89.152-171.008M387.2 218.24c-39.68 0-77.44 6.72-112.128 18.88l-83.392-56.96c-28.928-12.608-21.312 15.36-21.312 15.36l22.4 84.416C126.656 328.256 84.48 400.64 84.48 481.792c0 145.344 135.488 263.36 302.656 263.36 152.128 0 277.952-97.6 299.52-224.832-5.568 0.256-11.072 0.512-16.704 0.512-154.496 0-280.256-110.592-280.256-246.4 0-19.2 2.56-37.952 7.424-55.936-3.264 0-6.592-0.256-9.984-0.256M820.608 894.336h-625.28A195.392 195.392 0 0 1 0 699.008v-625.28A195.328 195.328 0 0 1 195.328-121.60000000000002h625.28a195.52 195.52 0 0 1 192.384 160.832l3.008 159.552V699.008A195.392 195.392 0 0 1 820.608 894.336M789.632 401.216a46.464 46.464 0 0 1-46.208-46.656c0-25.856 20.736-46.72 46.208-46.72a46.464 46.464 0 0 1 46.208 46.72 46.464 46.464 0 0 1-46.208 46.656"  horiz-adv-x="1024" />

    
    <glyph glyph-name="correct" unicode="&#58885;" d="M512 896c-282.77 0-512-229.23-512-512s229.23-512 512-512 512 229.23 512 512-229.23 512-512 512zM451.237 149.961l-3.456 3.493-11.246-10.953-251.465 258.487 93.184 90.642 163.602-168.174 305.682 302.043 91.374-92.471-387.675-383.067z"  horiz-adv-x="1024" />

    
    <glyph glyph-name="xxxxxx-" unicode="&#58889;" d="M512 896c-282.77 0-512-229.23-512-512s229.23-512 512-512c282.77 0 512 229.23 512 512 0 282.77-229.23 512-512 512zM781.397 114.517c-7.549-7.466-17.935-12.078-29.397-12.078-11.505 0-21.925 4.647-29.485 12.165l-210.515 210.771-210.603-210.859c-7.383-6.782-17.272-10.94-28.133-10.94-22.999 0-41.643 18.644-41.643 41.643 0 10.881 4.173 20.788 11.007 28.206l210.235 210.574-210.347 210.603c-6.782 7.383-10.94 17.272-10.94 28.133 0 22.999 18.644 41.643 41.643 41.643 10.881 0 20.788-4.173 28.206-11.007l210.574-210.832 210.517 210.773c7.478 7.215 17.67 11.661 28.9 11.661 22.999 0 41.643-18.644 41.643-41.643 0-11.188-4.412-21.345-11.591-28.827l-210.418-210.503 210.347-210.603c7.553-7.526 12.226-17.937 12.226-29.44s-4.673-21.914-12.225-29.439z"  horiz-adv-x="1024" />

    
    <glyph glyph-name="weixin" unicode="&#58942;" d="M88.41088 125.11232l44.64 139.13216c-38.54336 27.38688-70.57792 61.37984-93.17504 98.99648C13.41568 407.28576 0 454.81472 0 504.50688c0 84.79104 39.47648 164.29312 111.15776 223.86304C181.80736 787.08224 275.5136 819.4176 375.0144 819.4176c94.4256 0 184.62592-29.4976 253.98912-83.05792 69.9264-53.99552 112.5312-127.43296 119.968-206.78656l0.01152-0.12928c0.29952-3.44704 0.672-7.73632 0.79744-12.16768l-38.38464-1.08032c-0.08448 3.04512-0.3392 6.13632-0.66304 9.85472-6.44864 68.6144-43.80672 132.50944-105.19808 179.91424C542.85824 754.36416 460.99072 781.0176 375.0144 781.0176 189.40544 781.0176 38.4 656.97536 38.4 504.50688c0-84.56448 46.58176-163.43424 127.8016-216.38656l12.27136-8.00128-25.27872-78.78784 93.62816 47.83488 7.51616-2.38208c39.3088-12.46592 79.9104-18.78784 120.67584-18.78784 13.24288 0 26.78784 0.70528 40.25984 2.09408l3.93984-38.19776c-14.77632-1.5232-29.64736-2.29632-44.19968-2.29632-42.08128 0-83.98464 6.13504-124.67712 18.24512L88.41088 125.11232zM292.99456 607.46752c0-24.81024-20.1024-44.94464-44.87808-44.94464-24.73728 0-44.9472 20.1344-44.9472 44.94464 0 24.7744 20.20992 44.8448 44.9472 44.8448C272.89216 652.31232 292.99456 632.24192 292.99456 607.46752zM537.10464 607.46752c0-24.81024-20.0704-44.94464-44.87808-44.94464-24.70528 0-44.91264 20.1344-44.91264 44.94464 0 24.7744 20.20736 44.8448 44.91264 44.8448C517.03552 652.31232 537.10464 632.24192 537.10464 607.46752zM949.18272-51.36 802.19136 23.7056c-31.16544-8.25472-63.05664-12.43776-94.91328-12.43776-83.8656 0-162.89152 27.296-222.52032 76.86272-60.6592 50.42048-94.06464 117.73568-94.06464 189.54752 0 71.79776 33.408 139.09888 94.0672 189.50656 59.62752 49.55008 138.65216 76.8384 222.51776 76.8384 83.96416 0 163.04512-27.28832 222.67776-76.83712C990.60096 416.79104 1024 349.48992 1024 277.67808c0-42.9312-11.80032-83.904-35.07072-121.77792-19.44704-31.65312-46.78912-60.15488-79.59936-83.10272L949.18272-51.36zM806.26816 64.74112l78.12352-39.89632-20.60928 64.20224 12.58496 7.93856C945.78688 140.77568 985.6 206.63552 985.6 277.67808c0 125.6896-124.85504 227.94496-278.32192 227.94496-153.39136 0-278.18496-102.25536-278.18496-227.94496 0-125.72544 124.7936-228.01024 278.18496-228.01024 30.7968 0 61.65248 4.36992 91.71072 12.98688L806.26816 64.74112zM654.94272 360.95232c0-24.87552-20.06784-44.94464-44.80768-44.94464-24.77312 0-45.0176 20.0704-45.0176 44.94464 0 24.73984 20.24448 44.87936 45.0176 44.87936C634.87488 405.83296 654.94272 385.69216 654.94272 360.95232zM856.82304 360.95232c0-24.87552-20.03456-44.94464-44.80768-44.94464-24.84224 0-44.98304 20.0704-44.98304 44.94464 0 24.73984 20.13952 44.87936 44.98304 44.87936C836.7872 405.83296 856.82304 385.69216 856.82304 360.95232z"  horiz-adv-x="1024" />

    
    <glyph glyph-name="Slide" unicode="&#58886;" d="M969.919 855.068h-918.852c-28.192 0-51.046-23.097-51.046-51.587l0-825.216c0-28.47 22.853-51.543 51.046-51.543h918.851c28.19 0 51.044 23.072 51.044 51.543v825.216c0.001 28.49-22.852 51.587-51.043 51.587v0zM867.817 81.44h-714.649v257.856l153.133 154.742 255.242-257.886 153.134 154.751 153.141-154.751-0-154.712zM765.726 494.038c-56.389 0-102.089 46.175-102.089 103.143 0 56.988 45.7 103.15 102.089 103.15 56.384 0 102.090-46.163 102.090-103.15 0.001-56.968-45.706-103.143-102.090-103.143v0zM765.726 494.038z"  horiz-adv-x="1024" />

    
    <glyph glyph-name="fanhui" unicode="&#58880;" d="M920.2838 78.0705c-9.42 0-17.6757 6.6355-19.5745 16.0251-0.2668 1.2601-13.3605 61.0206-69.1789 119.7338-71.0877 74.7763-181.0936 115.9104-319.0088 119.511v-162.43786712608852c0-7.5129-4.2123-14.3892-10.9041-17.8029-6.6907-3.4127-14.7326-2.7881-20.8147 1.6219L97.6258 432.4992c-5.1797 3.7545-8.2487 9.7624-8.2557 16.16-0.007 6.3967 3.0491 12.4116 8.2208 16.177L480.7678 743.883c6.0791 4.426 14.128 5.0676 20.8297 1.6569 6.7027-3.4097 10.924-10.293 10.924-17.8129v-172.47905919786385c24.6843-0.9094 67.7468-4.5709 117.668-17.8189 79.4594-21.0877 145.4324-57.8917 196.0901-109.3888 77.9573-79.2513 116.3139-190.3849 114.0044-330.313-0.1679-10.2121-8.0099-18.6544-18.1814-19.5747C921.493 78.0974 920.8844 78.0705 920.2838 78.0705zM492.5343 373.5721c88.5746 0 167.1135-13.9465 233.4333-41.4509 53.7468-22.2899 99.6105-53.4568 136.3142-92.6342 12.0513-12.8633 22.3078-25.7276 31.0252-38.1491-13.3045 81.0081-45.2642 147.5749-95.5261 198.6723-108.1751 109.9704-268.3481 115.5417-299.3573 115.5417-3.3079 0-5.1247-0.065-5.1427-0.065-5.4315-0.1939-10.7042 1.8188-14.6107 5.5852-3.9065 3.7674-6.1231 8.9599-6.1231 14.3862V688.4466331827022L143.3597 448.7172l329.1873-238.6382V353.5856689164747C472.547 364.6232 481.4953 373.5721 492.5343 373.5721z"  horiz-adv-x="1000" />

    
    <glyph glyph-name="youxiang" unicode="&#58916;" d="M885.514437 604.141952 138.483516 604.141952c-41.377386 0-75.052347-33.67496-75.052347-75.135234l0-458.07381c0-41.484833 33.67496-75.074859 75.052347-75.074859l747.030921 0c41.550325 0 75.05337 33.590026 75.05337 75.074859L960.567807 529.006717C960.566784 570.466991 927.063739 604.141952 885.514437 604.141952L885.514437 604.141952zM867.55439 550.342652 569.65256 286.198669c-26.000164-23.192212-45.255717-34.714639-57.653071-34.714639-12.395308 0-31.652907 11.522428-57.653071 34.714639L156.443563 550.342652 867.55439 550.342652 867.55439 550.342652zM119.257639 87.662941 119.257639 501.540156l232.657874-204.067722L119.257639 87.662941 119.257639 87.662941zM158.382729 49.656325l233.531777 207.390397 38.257326-33.590026c22.233374-19.422352 49.616024-29.40061 81.826634-29.40061 32.380478 0 59.591213 9.978259 81.910545 29.40061l38.254256 33.590026 233.539964-207.390397L158.382729 49.656325 158.382729 49.656325zM904.771013 87.662941 672.111093 297.472434l232.659921 204.067722L904.771013 87.662941 904.771013 87.662941zM904.771013 87.662941"  horiz-adv-x="1024" />

    
    <glyph glyph-name="Index" unicode="&#59020;" d="M723.073 614.296c0 0-178.855-8.608-242.328-11.459-39.23-1.791-60.568 31.497-25.961 65.899 26.593 26.369 36.277 33.813 31.736 83.052-5.206 56.384-61.988 74.712-108.593 74.188-48.749-0.576-102.112-26.206-117.829-72.695-10.337-30.487-10.036-61.222 16.701-80.798 14.588-10.697 46.874-26.472 10.658-55.333-19.544-15.589-216.333 2.903-216.333 2.903s-8.67-167.897-2.5-215.725c3.527-27.483 37.768-40.343 60.205-10.617 34.609 45.809 130.294 15.92 135.135-74.010 5.090-94.348-96.223-108.889-117.85-72.088-20.186 34.392-77.852 42.948-80.351-0.916-3.868-68.298 28.313-285.617 28.313-285.617s129.348-30.365 187.647-21.026c27.082 4.385 39.514 50.823 14.412 72.632-23.090 20.037-27.932 127.154 92.573 114.851 94.285-9.628 78.537-91.362 54.546-106.293-23.078-14.312-21.98-58.916 25.983-71.591 65.627-17.39 264.701 25.493 264.701 25.493s-26.303 160.339-17.501 212.298c9.404 55.632 73.623 22.064 81.646 11.439 51.934-68.751 159.633-31.169 159.633 84.236 0 168.071-153.797 139.498-168.27 99.124-15.997-44.459-68.936-33.063-74.688-5.745-13.521 63.809 8.316 237.801 8.316 237.801z"  horiz-adv-x="1024" />

    
    <glyph glyph-name="add" unicode="&#59019;" d="M889.746 310.553h-355.195v355.194c0 12.456-10.097 22.552-22.552 22.552-12.456 0-22.552-10.096-22.552-22.552v-355.194h-355.195c-12.456 0-22.552-10.097-22.552-22.552 0-12.455 10.096-22.552 22.552-22.552h355.194v-355.194c0-12.456 10.097-22.552 22.552-22.552s22.552 10.096 22.552 22.552v355.193h355.194c12.456 0 22.552 10.097 22.552 22.552 0.002 12.456-10.095 22.553-22.55 22.553z"  horiz-adv-x="1024" />

    
    <glyph glyph-name="huifu" unicode="&#58891;" d="M491.395218 577.881868l0-292.783253 114.00552-114.756627 43.431162 43.432185 0-30.460756 36.478819 36.718273-96.957239 97.596805L588.35348 577.881868 491.395218 577.881868zM556.034401 740.539458c-339.354941 0-387.835096-325.316204-387.835096-325.316204L38.921963 415.223255l193.916525-195.191564 193.917548 195.191564L265.15859 415.223255c0 0 56.559157 227.721445 290.87581 227.721445 228.92076 0 291.854091-227.721445 290.87581-325.316204-0.62524-62.253856-32.385595-136.354528-80.376609-198.098777l43.929512 0.026606 0-0.106424 75.724659 0.122797 0-0.12382 10.009981 0.022513c31.324426 63.797002 47.671743 133.49541 47.671743 198.157105C943.869496 477.585581 836.147076 740.539458 556.034401 740.539458zM794.823925 2.219943l-145.991002-0.354064 0-94.26492-84.913948 84.913948c-2.628874-0.128937-5.257747-0.201591-7.883551-0.201591-109.741403 4.066619-193.917548 97.593735-193.917548 97.593735l-96.958262-97.593735c0 0 114.475218-97.594759 290.87581-97.594759 106.133226 0 192.642508 43.012629 256.806877 107.124809l-18.017352-0.116657L794.824949 2.219943zM633.48333 176.716162 517.454734 60.686543l116.028597-116.028597 0 72.520687 161.630191 0.391926 0 86.626963-161.630191-0.098237L633.48333 176.716162zM810.173518 17.175563l60.664661 0.394996 0 86.626963-60.664661-0.099261L810.173518 17.175563zM886.28908 17.175563l43.51098 0.394996 0 86.626963-43.51098-0.099261L886.28908 17.175563zM944.961364 104.098261l0-86.922698 29.006637 0.394996 0 86.626963L944.961364 104.098261z"  horiz-adv-x="1024" />

    
    <glyph glyph-name="System" unicode="&#59187;" d="M932.416 481.856l-63.616 6.72c-6.976 23.296-16.384 45.888-27.904 67.392l40.32 49.792c16.256 20.096 13.312 51.52-6.656 71.488l-62.656 62.656c-10.944 10.944-25.856 17.216-40.704 17.216-11.712 0-22.336-3.712-30.784-10.496l-49.792-40.32c-21.44 11.648-44.032 20.928-67.392 27.968l-6.72 63.616c-2.688 25.728-27.008 45.888-55.296 45.888h-88.512c-28.288 0-52.544-20.16-55.232-45.888l-6.72-63.616c-23.296-7.040-45.952-16.32-67.392-27.968l-49.792 40.32c-8.576 6.848-19.136 10.496-30.784 10.496-14.976 0-29.888-6.272-40.768-17.216l-62.656-62.528c-19.904-20.096-22.848-51.52-6.592-71.552l40.32-49.792c-11.648-21.504-20.992-44.096-27.968-67.328l-63.616-6.784c-25.728-2.624-45.952-27.008-45.952-55.232v-88.576c0-28.224 20.16-52.544 45.952-55.232l63.616-6.72c6.976-23.296 16.32-45.952 27.968-67.392l-40.32-49.728c-16.256-20.096-13.312-51.584 6.592-71.552l62.72-62.656c10.88-10.944 25.728-17.216 40.768-17.216 11.648 0 22.208 3.712 30.72 10.56l49.792 40.256c21.44-11.584 44.096-20.864 67.392-27.968l6.656-63.616c2.688-25.728 26.944-45.888 55.168-45.888h88.64c28.224 0 52.544 20.16 55.232 45.888l6.656 63.616c23.296 7.040 45.952 16.384 67.392 27.968l49.792-40.256c8.512-6.912 19.136-10.56 30.784-10.56 14.848 0 29.76 6.272 40.704 17.216l62.656 62.656c20.032 20.032 22.912 51.456 6.656 71.488l-40.32 49.792c11.584 21.44 20.928 44.032 27.904 67.392l63.616 6.656c25.728 2.688 45.952 27.008 45.952 55.232l0 88.64c0.128 28.224-20.032 52.608-45.824 55.168v0 0zM934.656 338.112c0-6.464-4.032-11.648-6.784-11.904l-93.44-9.856-3.84-14.72c-7.488-29.44-19.264-57.664-34.816-84.032l-7.68-12.992 59.136-73.088c1.728-2.112 1.024-8.64-3.584-13.184l-62.72-62.656c-2.624-2.624-6.464-4.352-9.792-4.352-1.472 0-2.752 0.32-3.456 0.896l-73.024 59.072-13.056-7.68c-26.304-15.552-54.592-27.264-84.032-34.816l-14.656-3.84-9.856-93.44c-0.32-2.688-5.44-6.848-11.904-6.848h-88.512c-6.464 0-11.584 4.16-11.84 6.848l-9.792 93.44-14.784 3.84c-29.44 7.552-57.664 19.264-84.032 34.816l-12.992 7.616-73.024-59.072c-0.704-0.576-1.92-0.896-3.392-0.896-3.392 0-7.168 1.728-9.92 4.352l-62.592 62.784c-4.544 4.544-5.248 11.072-3.52 13.184l59.136 73.088-7.744 13.056c-15.616 26.368-27.328 54.528-34.816 84.032l-3.84 14.72-93.376 9.792c-2.752 0.256-6.912 5.44-6.912 11.84v88.576c0 6.528 4.096 11.584 6.912 11.904l93.376 9.792 3.84 14.72c7.488 29.504 19.264 57.728 34.816 84.032l7.744 13.056-59.136 73.024c-1.728 2.176-1.088 8.576 3.52 13.312l62.592 62.528c2.752 2.752 6.592 4.416 9.92 4.416 1.408 0 2.688-0.32 3.392-0.896l73.024-59.072 13.056 7.68c26.368 15.68 54.656 27.392 84.032 34.944l14.72 3.712 9.792 93.44c0.32 2.752 5.376 6.848 11.904 6.848h88.576c6.464 0 11.584-4.096 11.904-6.848l9.856-93.44 14.656-3.712c29.44-7.552 57.664-19.264 84.032-34.944l12.992-7.68 73.088 59.136c0.704 0.576 1.856 0.896 3.392 0.896 3.328 0 7.168-1.664 9.856-4.416l62.656-62.528c4.544-4.672 5.312-11.136 3.584-13.312l-59.136-73.024 7.68-13.056c15.552-26.304 27.328-54.528 34.88-84.032l3.776-14.72 93.44-9.792c2.752-0.32 6.784-5.376 6.784-11.904l0-88.64h-0.064zM516.928 527.168c-79.808 0-144.832-64.96-144.832-144.832 0-79.744 65.024-144.832 144.832-144.832 79.872 0 144.896 65.088 144.896 144.832 0 79.936-65.024 144.832-144.896 144.832v0 0zM516.928 281.216c-55.744 0-101.12 45.376-101.12 101.12 0 55.808 45.376 101.184 101.12 101.184 55.808 0 101.184-45.376 101.184-101.184 0-55.68-45.376-101.12-101.184-101.12v0 0zM561.216-87.104h-88.576c-32.384 0-60.224 23.36-63.36 53.184l-6.144 58.24c-20.224 6.464-40 14.656-58.88 24.448l-45.504-36.864c-22.784-18.368-60.224-14.976-82.496 7.168l-62.656 62.656c-22.976 22.912-26.112 59.072-7.168 82.496l36.864 45.504c-9.856 18.88-18.048 38.656-24.448 58.816l-58.24 6.144c-29.888 3.2-53.248 31.040-53.248 63.424v88.576c0 32.448 23.36 60.288 53.248 63.424l58.24 6.208c6.4 20.096 14.592 39.808 24.448 58.752l-36.864 45.568c-18.88 23.296-15.744 59.52 7.168 82.496l62.592 62.592c22.272 22.272 59.648 25.728 82.56 7.232l45.504-36.864c18.944 9.856 38.72 18.048 58.88 24.448l6.144 58.24c3.072 29.76 31.040 53.184 63.424 53.184h88.576c32.384 0 60.224-23.424 63.36-53.248l6.272-58.24c20.16-6.4 39.936-14.656 58.752-24.448l45.568 36.864c22.784 18.432 60.16 15.040 82.496-7.232l62.656-62.592c22.912-22.912 26.048-59.2 7.232-82.496l-36.864-45.568c9.792-18.944 17.984-38.656 24.448-58.816l58.176-6.144c29.888-3.136 53.248-30.976 53.248-63.424v-88.576c0-32.448-23.36-60.224-53.312-63.424l-58.112-6.144c-6.464-20.16-14.656-39.936-24.448-58.816l36.864-45.632c18.88-23.296 15.68-59.52-7.232-82.368l-62.656-62.656c-22.4-22.272-59.776-25.536-82.496-7.168l-45.568 36.864c-18.816-9.728-38.528-17.92-58.816-24.448l-6.208-58.176c-3.136-29.824-30.976-53.184-63.424-53.184zM342.464 68.288l4.736-2.56c20.992-11.264 43.136-20.416 65.92-27.392l5.184-1.536 7.232-68.992c2.304-21.632 22.976-38.528 47.040-38.528h88.64c24.128 0 44.864 16.896 47.104 38.528l7.232 68.992 5.248 1.6c22.848 6.912 45.056 16.192 65.856 27.392l4.8 2.56 54.016-43.648c16.384-13.312 44.096-10.56 60.608 6.016l62.656 62.656c17.024 17.088 19.712 43.712 6.016 60.544l-43.648 53.952 2.56 4.8c11.264 21.056 20.416 43.264 27.328 65.984l1.536 5.12 68.992 7.232c21.632 2.24 38.528 22.912 38.528 47.104l0 88.576c0 24.128-16.96 44.8-38.528 47.040l-68.992 7.296-1.536 5.184c-6.848 22.72-16.064 44.864-27.328 65.92l-2.56 4.736 43.648 54.016c13.696 16.896 11.008 43.52-6.016 60.544l-62.656 62.656c-16.576 16.576-44.096 19.392-60.608 6.016l-54.016-43.648-4.8 2.496c-20.864 11.456-42.944 20.544-65.792 27.456l-5.248 1.536-7.232 69.056c-2.24 21.632-23.040 38.592-47.168 38.592h-88.512c-24.128 0-44.8-16.96-47.104-38.592l-7.296-69.056-5.184-1.536c-22.72-6.912-44.928-15.936-65.92-27.392l-4.736-2.496-54.080 43.648c-16.512 13.44-44.032 10.496-60.416-5.952l-62.72-62.592c-17.088-17.152-19.776-43.776-6.080-60.672l43.712-54.016-2.56-4.736c-11.328-21.056-20.48-43.2-27.328-65.856l-1.6-5.184-68.992-7.424c-21.632-2.24-38.592-22.912-38.592-47.040v-88.576c0-24.064 16.96-44.8 38.528-47.104l68.992-7.232 1.6-5.12c6.848-22.784 16-44.928 27.328-65.92l2.56-4.8-43.712-54.016c-13.76-16.896-11.008-43.52 6.016-60.544l62.656-62.656c16.512-16.512 44.096-19.392 60.48-6.016l54.208 43.584zM561.216-43.52h-88.576c-9.856 0-19.2 6.656-19.968 14.336l-9.344 87.616-9.088 2.304c-30.208 7.808-59.2 19.776-86.208 35.84l-8.192 4.736-68.544-55.488c-5.248-4.416-17.216-2.816-24.192 4.032l-62.656 62.656c-7.104 7.104-9.024 18.24-4.032 24.192l55.424 68.608-4.8 8.256c-16 27.008-28.032 56-35.84 86.144l-2.176 9.152-87.744 9.216c-7.744 0.832-14.272 9.984-14.272 20.032v88.576c0 9.984 6.464 19.2 14.144 20.032l87.872 9.344 2.24 9.152c7.808 30.144 19.84 59.136 35.84 86.144l4.8 8.192-55.552 68.48c-4.864 6.016-2.944 17.088 4.096 24.192l62.656 62.656c4.224 4.224 10.112 6.848 15.68 6.848 2.368 0 5.76-0.512 8.512-2.752l68.608-55.488 8.128 4.8c26.944 15.936 55.936 27.968 86.208 35.776l9.152 2.304 9.28 87.744c0.768 7.616 9.92 14.272 20.032 14.272h88.576c9.92 0 19.2-6.592 20.032-14.208l9.28-87.808 9.088-2.304c30.336-7.808 59.392-19.84 86.336-35.84l8.064-4.736 68.608 55.488c6.336 4.864 17.408 2.688 24.256-4.16l62.592-62.592c7.040-7.040 9.024-18.176 4.16-24.128l-55.616-68.672 4.8-8.192c16-26.88 28.032-55.872 35.776-86.144l2.304-9.216 87.744-9.152c7.744-0.896 14.208-10.048 14.208-20.096v-88.576c0-10.048-6.464-19.2-14.208-20.096l-87.744-9.216-2.304-9.088c-7.744-30.272-19.776-59.264-35.84-86.272l-4.736-8.064 55.552-68.608c4.864-6.016 2.944-17.088-4.096-24.128l-62.656-62.656c-6.976-6.912-18.496-8.832-24.256-4.096l-68.544 55.424-8.192-4.736c-26.944-16.064-56-28.032-86.208-35.84l-9.088-2.304-9.28-87.808c-0.896-7.616-10.112-14.080-20.096-14.080zM468.8-25.92c0.768-0.576 2.112-1.216 3.84-1.216h88.64c1.728 0 3.136 0.64 3.904 1.216l10.24 97.472 20.224 5.184c28.608 7.296 56.192 18.752 81.856 33.856l17.984 10.688 76.16-61.76c1.088 0.32 2.432 0.96 3.584 1.984l62.656 62.656c1.216 1.216 1.664 2.624 1.92 3.584l-61.824 76.16 10.688 17.92c15.168 25.664 26.624 53.248 33.92 81.856l5.184 20.288 97.472 10.24c0.576 0.832 1.216 2.176 1.216 3.904l0 88.576c0 1.728-0.64 3.136-1.216 3.904l-97.472 10.24-5.184 20.224c-7.296 28.736-18.752 56.256-33.856 81.792l-10.688 17.984 61.76 76.16c-0.256 0.96-0.704 2.368-1.984 3.712l-62.656 62.528c-1.152 1.152-2.496 1.728-3.584 1.984l-76.16-61.696-17.92 10.624c-25.6 15.168-53.184 26.56-81.92 33.92l-20.224 5.184-10.304 97.472c-0.704 0.576-2.048 1.152-3.84 1.152h-88.512c-1.728 0-3.136-0.64-3.904-1.152l-10.176-97.472-20.288-5.12c-28.736-7.424-56.32-18.752-81.792-33.92l-18.112-10.624-76.16 61.696c-1.088-0.256-2.432-0.896-3.52-2.048l-62.72-62.592c-1.28-1.28-1.728-2.624-1.92-3.584l61.76-76.224-10.688-17.92c-15.168-25.728-26.624-53.248-33.984-81.856l-5.12-20.16-97.472-10.368c-0.576-0.704-1.152-2.112-1.152-3.84v-88.576c0-1.664 0.64-3.072 1.216-3.904l97.408-10.24 5.12-20.288c7.36-28.608 18.816-56.064 33.984-81.792l10.688-17.984-61.76-76.224c0.192-0.896 0.768-2.24 1.92-3.52l62.656-62.656c1.088-1.088 2.496-1.664 3.52-1.984l76.224 61.76 17.92-10.688c25.728-15.104 53.248-26.496 81.92-33.856l20.224-5.184 10.304-97.472zM516.928 229.376c-84.352 0-152.96 68.672-152.96 153.024s68.544 153.024 152.96 153.024c84.416 0 153.088-68.608 153.088-153.024 0-84.352-68.672-153.024-153.088-153.024zM516.928 518.976c-75.264 0-136.576-61.248-136.576-136.64 0-75.328 61.312-136.64 136.576-136.64 75.328 0 136.64 61.312 136.64 136.64 0 75.392-61.312 136.64-136.64 136.64zM516.928 273.024c-60.288 0-109.312 49.088-109.312 109.376s49.024 109.44 109.312 109.44c60.352 0 109.44-49.152 109.44-109.44s-49.088-109.376-109.44-109.376zM516.928 475.392c-51.264 0-92.864-41.664-92.864-92.992 0-51.2 41.6-92.928 92.864-92.928 51.264 0 92.992 41.728 92.992 92.928 0 51.264-41.728 92.992-92.992 92.992z"  horiz-adv-x="1024" />

    
    <glyph glyph-name="xiaolvd" unicode="&#59084;" d="M900.8128 389.0432c-1.0496-0.9984-2.1248-2.048-3.2512-3.2512L528.1792 16.35839999999996l-0.1024-0.1536c-0.9472-0.64-1.792-1.4592-2.6368-2.304-92.1088-89.2416-240.5376-88.192-331.2128 2.5088-90.8544 90.8032-91.7504 239.488-2.048 331.5456C198.5024 354.35519999999997 611.5328 767.7184 615.68 771.8656c64.6912 64.6144 169.8816 64.6144 234.5216 0 31.1552-31.2064 48.384-72.704 48.384-116.9152-0.0768-44.3392-17.408-86.016-48.8192-117.3504L424.5504 112.46079999999995c-35.8912-32.5888-90.7264-31.2064-125.1584 3.2-34.432 34.3552-35.5328 89.3952-2.6624 125.312 0.64 0.5888 1.1776 1.3056 1.664 2.048l0.1536 0.0512c0.1536 0.1536 0.3072 0.3072 0.4352 0.4608l1.0752 1.1008c0.0768 0.0512 0.2048 0.1024 0.3072 0.256l369.664 369.6896c9.7536 9.7792 9.7536 25.6 0 35.4304-9.7792 9.7792-25.6768 9.7792-35.456 0L265.088 280.4992l-1.6384-1.5616c-0.2816-0.3072-0.64-0.64-0.9472-0.9984l-4.1728-4.096 0 0c-1.6384-1.6384-2.9952-3.5072-4.096-5.4528-45.4144-55.7056-41.8048-136.8576 9.6-188.2624 53.6576-53.5552 139.2384-55.4496 195.0208-4.2496 0.2304 0.2048 0.512 0.4608 0.768 0.6912l425.5232 425.5232c40.9088 40.7808 63.4624 95.0784 63.4624 152.832 0.0512 57.6-22.272 111.7184-63.0016 152.3456-84.1472 84.1472-221.2096 84.1472-305.4592 0l-211.8144-211.9936-145.6384-145.8432-65.8688-65.8944c-0.1536-0.2048-0.3328-0.3584-0.4864-0.5376l0 0c-108.9024-111.5392-107.8016-291.9424 2.3808-402.048C214.272-74.59839999999997 287.616-102.39999999999998 361.0368-102.39999999999998c71.0144 0 142.1568 26.0608 197.1712 78.2592 0.4352 0.3072 0.8192 0.6912 1.2032 0.9984 0.4096 0.3584 0.7168 0.6912 1.1264 1.0496L563.2-19.50720000000001c0.1024 0.1536 0.1792 0.1536 0.3072 0.3072l369.6384 369.6896c0.0512 0.0512 0.1792 0.256 0.2304 0.3072 0.64 0.5376 1.1776 1.2032 1.8944 1.8432 9.984 9.4976 10.4448 25.2928 0.9984 35.3792C926.6944 398.08 910.848 398.5408 900.8128 389.0432L900.8128 389.0432zM900.8128 389.0432"  horiz-adv-x="1024" />

    
    <glyph glyph-name="youxiang1" unicode="&#58927;" d="M515.347235-147.790606c-246.441808 0-447.775256 201.803145-447.775256 448.813912 0 247.016907 201.333448 448.820052 447.775256 448.820052 247.537769 0 447.772186-201.803145 447.772186-448.820052C963.119421 54.012539 761.783926-147.790606 515.347235-147.790606zM515.347235 705.733745c-222.23857 0-403.77002-180.851974-403.77002-404.709415 0-223.854371 181.53145-404.704298 403.77002-404.704298 223.331461 0 403.764903 181.953052 403.764903 404.704298C919.112138 523.779669 737.580688 705.733745 515.347235 705.733745zM771.107269 91.576063 272.807293 91.576063c-27.599591 0-50.061163 23.131837-50.061163 51.700499L222.74613 458.728094c0 28.553313 22.461571 51.742455 50.061163 51.742455l498.299977 0c27.713178 0 50.061163-23.189142 50.061163-51.742455L821.168432 143.276562C821.168432 114.7079 798.820448 91.576063 771.107269 91.576063zM757.89127 128.623841l-155.777903 142.819776-25.51921-23.131837c-14.886035-13.374612-33.038464-20.247136-54.636365-20.247136-21.48329 0-39.750329 6.872524-54.582129 20.247136l-25.520233 23.131837L286.082644 128.623841 757.89127 128.623841zM259.983219 439.815349l0-285.019429 155.191548 144.485719L259.983219 439.815349zM284.787138 473.422771l198.711737-181.904956c17.34504-15.971763 30.187533-23.904433 38.457894-23.904433s21.112853 7.931646 38.457894 23.904433l198.711737 181.904956L284.787138 473.422771zM783.948739 439.815349 628.757191 299.281639 783.948739 154.79592 783.948739 439.815349z"  horiz-adv-x="1024" />

    
    <glyph glyph-name="shujuku" unicode="&#59071;" d="M802.122145 681.882524c-76.971046 33.062-180.719968 51.27071-292.1355 51.27071-111.419625 0-215.170594-18.207687-292.140617-51.27071-78.878488-33.881668-122.31886-80.337723-122.31886-130.811278l0-505.482563c0-50.475602 43.440371-96.931656 122.319883-130.812301 76.971046-33.060977 180.720991-51.268664 292.140617-51.268664 111.415532 0 215.165478 18.207687 292.134477 51.268664 78.879512 33.880645 122.319883 80.338746 122.320906 130.812301l0 505.482563C924.442028 601.544801 881.001657 648.000855 802.122145 681.882524zM756.015038 459.671583c-68.6311-23.537066-160.604838-37.589107-246.029416-37.589107-86.703711 0-176.380126 13.701047-246.035556 37.589107-73.178673 25.096585-113.479541 57.555857-113.479541 91.399663 0 33.843806 40.300868 66.303079 113.479541 91.39864 69.654406 23.88806 159.330822 37.588083 246.035556 37.588083 85.423555 0 177.396269-14.051017 246.029416-37.58706 73.181743-25.096585 113.482611-57.555857 113.482611-91.399663C869.497649 517.22744 829.196781 484.768167 756.015038 459.671583zM756.015038 304.134157c-68.632123-23.538089-160.605861-37.589107-246.029416-37.589107-86.703711 0-176.379103 13.700023-246.035556 37.589107-73.178673 25.096585-113.480564 57.557904-113.480564 91.40171l0 62.943564c34.903951-26.709315 85.219917-48.963155 146.0524-64.541969 63.723324-16.319687 137.53747-24.946159 213.46372-24.946159 75.92318 0 149.736303 8.626471 213.459626 24.947182 60.832484 15.579837 111.148449 37.833677 146.053424 64.542992l0-62.945611C869.497649 361.692061 829.196781 329.231765 756.015038 304.134157zM756.015038 129.161077c-68.6311-23.536043-160.603815-37.586037-246.029416-37.586037-86.704734 0-176.38115 13.700023-246.035556 37.586037-73.178673 25.095561-113.479541 57.553811-113.479541 91.397616L150.470525 302.943029c34.903951-26.710338 85.22094-48.964178 146.053424-64.542992 63.723324-16.319687 137.53747-24.947182 213.462696-24.947182 75.922157 0 149.735279 8.627495 213.459626 24.948205 60.832484 15.578814 111.148449 37.832653 146.053424 64.544015l0-82.386382C869.497649 186.714887 829.196781 154.256638 756.015038 129.161077zM509.985622-83.399063c-86.704734 0-176.38115 13.70207-246.035556 37.588083-73.178673 25.095561-113.479541 57.555857-113.479541 91.399663l0 82.382289c34.903951-26.708292 85.219917-48.961108 146.0524-64.539922 63.723324-16.319687 137.53747-24.947182 213.462696-24.947182 75.92318 0 149.736303 8.627495 213.459626 24.947182 60.832484 15.581883 111.148449 37.8347 146.053424 64.541969l0-82.384335c0-33.843806-40.301891-66.302055-113.482611-91.399663C687.383938-69.347023 595.411223-83.399063 509.985622-83.399063z"  horiz-adv-x="1024" />

    
    <glyph glyph-name="caidanshouji" unicode="&#58909;" d="M697.899432-148.249047l-373.588627 0c-55.030337 0-99.626022 44.607964-99.626022 99.626022L224.684784 648.764242c0 55.019081 44.595684 99.626022 99.626022 99.626022l373.588627 0c55.041594 0 99.626022-44.607964 99.626022-99.626022l0-697.387267C797.525454-103.641083 752.941026-148.249047 697.899432-148.249047zM747.711931 648.764242c0 27.508517-22.278399 49.813522-49.812499 49.813522l-373.588627 0c-27.508517 0-49.813522-22.303982-49.813522-49.813522l0-24.907273 473.214648 0L747.711931 648.764242zM747.711931 574.04447 274.497283 574.04447l0-498.133178 473.214648 0L747.711931 574.04447zM747.711931 26.09777 274.497283 26.09777l0-74.720795c0-27.509541 22.303982-49.813522 49.813522-49.813522l373.588627 0c27.533077 0 49.812499 22.303982 49.812499 49.813522L747.711931 26.09777zM511.111259-73.529275c-20.638039 0-37.359886 16.734126-37.359886 37.359886 0 20.650319 16.721847 37.359886 37.359886 37.359886s37.359886-16.709567 37.359886-37.359886C548.470121-56.795149 531.749298-73.529275 511.111259-73.529275z"  horiz-adv-x="1024" />

    
    <glyph glyph-name="Module" unicode="&#58910;" d="M748.005 413.625c-63.317 0-209.375 1.392-209.375 1.392s0.411 155.479 0.411 207.57c0 115.401 93.552 208.955 208.963 208.955 115.402 0 208.954-93.554 208.954-208.955 0-115.409-93.552-208.962-208.954-208.962zM273.092-61.277c-115.4 0-208.953 93.553-208.953 208.953 0 115.413 93.553 208.963 208.953 208.963 63.318 0 209.376-1.393 209.376-1.393s-0.41-155.468-0.41-207.57c0-115.4-93.555-208.953-208.965-208.953zM64.138 622.588c0 115.401 93.553 208.955 208.953 208.955 115.412 0 208.965-93.554 208.965-208.955 0-52.091 0.41-207.57 0.41-207.57s-146.056-1.392-209.376-1.392c-115.399-0.001-208.953 93.552-208.953 208.962zM956.959 147.676c0-115.4-93.552-208.953-208.954-208.953-115.412 0-208.963 93.553-208.963 208.953 0 52.103-0.411 207.57-0.411 207.57s146.058 1.393 209.375 1.393c115.402 0.001 208.954-93.55 208.954-208.963zM595.223 146.612c0-12.315 0.029-10.914 0.090-1.56 1.002-78.962 76.896-143.884 156.040-143.884 79.673 0 144.253 64.591 144.253 144.264 0 79.673-64.58 154.937-144.253 154.937-43.706 0-155.431-0.433-155.431-0.433s-0.419-123.308-0.61-154.883c-0.009 0.517-0.089 1.029-0.089 1.558z"  horiz-adv-x="1024" />

    
    <glyph glyph-name="Menu" unicode="&#59064;" d="M511.256-60.543c-246.065 0-446.246 200.192-446.246 446.245 0 246.063 200.181 446.256 446.246 446.256 246.061 0 446.243-200.192 446.243-446.256 0-123.348-47.886-237.005-134.843-320.053-4.794-4.565-9.743-9.070-14.693-13.385l-27.931 32.041c4.47 3.902 8.942 7.948 13.28 12.099 55.511 52.999 121.687 146.238 121.687 289.299 0 222.635-181.12 403.757-403.743 403.757-222.626 0-403.746-181.121-403.746-403.757 0-222.625 181.12-403.745 403.746-403.745 53.308 0 108.321 11.539 159.092 33.389l16.787-39.054c-56.021-24.093-116.842-36.835-175.881-36.835zM526.734 478.836c20.867-2.761 41.732-11.994 59.663-29.924 16.892-16.913 26.53-38.142 29.654-60.14l131.939 221.722-221.256-131.659zM436.133 298.63c-16.892 16.891-26.543 38.098-29.684 60.054l-131.93-221.669 221.7 131.939c-21.974 3.112-43.182 12.763-60.086 29.676zM541.322 403.799c16.56-16.602 16.56-43.497 0-60.099-16.6-16.6-43.494-16.6-60.095 0-16.603 16.602-16.603 43.497 0 60.099 16.58 16.6 43.495 16.6 60.095 0z"  horiz-adv-x="1024" />

    
    <glyph glyph-name="huandeng" unicode="&#58893;" d="M864 678.4l-832 0C12.8 678.4 0 659.2 0 646.4l0-640c0-19.2 12.8-32 32-32l832 0c19.2 0 32 12.8 32 32l0 640C896 659.2 883.2 678.4 864 678.4zM844.8 44.8c0-12.8-6.4-19.2-19.2-19.2L76.8 25.6c-12.8 0-19.2 6.4-19.2 19.2L57.6 601.6c0 12.8 6.4 19.2 19.2 19.2l748.8 0c12.8 0 19.2-6.4 19.2-19.2L844.8 44.8zM992 793.6 204.8 793.6C192 793.6 179.2 780.8 179.2 768S192 742.4 204.8 742.4l748.8 0c12.8 0 19.2-6.4 19.2-19.2l0-550.4c0 0 0 0 0 0 0-12.8 12.8-25.6 25.6-25.6 12.8 0 25.6 12.8 25.6 25.6L1024 761.6C1024 780.8 1011.2 793.6 992 793.6zM83.2 96 236.8 294.4 384 96 582.4 454.4 812.8 96ZM204.8 473.6m-108.8 0a1.7 1.7 0 1 0 217.6 0 1.7 1.7 0 1 0-217.6 0Z"  horiz-adv-x="1024" />

    
    <glyph glyph-name="shuaxin" unicode="&#58922;" d="M320.067666 609.562269c53.150524 53.15564 126.532835 86.077447 207.455889 86.077447 89.598644 0 172.483376-40.805358 227.39501-108.063181l-101.596909-101.603049 251.597225 0L904.918881 737.575828l-90.333378-90.361007C743.985562 729.792561 639.765919 779.506822 527.524578 779.506822c-104.055914 0-198.409862-42.322921-266.757506-110.670565-49.444109-49.455365-84.98865-112.251573-100.999298-182.862771l86.263689 0C260.052804 533.647275 285.750069 575.255928 320.067666 609.562269L320.067666 609.562269zM734.974327 194.655607c-53.151547-53.15564-126.533858-86.083587-207.450772-86.083587-89.599667 0-172.488493 40.810474-227.402173 108.069321l101.603049 101.596909L150.122089 318.23825 150.122089 66.641025l90.333378 90.333378c70.601988-82.555228 174.820608-132.270513 287.067065-132.270513 104.055914 0 198.402699 42.306548 266.750343 110.650099 49.360198 49.397037 84.866876 112.477724 100.920504 182.883237L808.689213 318.237227C794.560424 271.00346 768.983909 228.661096 734.974327 194.655607L734.974327 194.655607z"  horiz-adv-x="1024" />

    
    <glyph glyph-name="SER" unicode="&#58903;" d="M256.81 168.377c8.512-5.884 10.59-17.503 4.645-25.932-5.945-8.432-17.676-10.486-26.19-4.6-52.114 36.085-94.724 82.117-123.983 134.775-28.365 51.034-44.258 108.249-44.258 168.65 0 107.447 50.19 204.613 131.294 274.818 80.434 69.634 191.364 112.706 313.691 112.706 122.33 0 233.26-43.072 313.693-112.705 81.105-70.206 131.294-167.371 131.294-274.818s-50.182-204.607-131.294-274.813c-80.442-69.632-191.372-112.704-313.693-112.704-14.441 0-28.826 0.621-43.077 1.807-10.169 0.845-20.298 2.017-30.36 3.475l-74.61-114.072c-5.658-8.626-17.322-11.083-26.038-5.477-8.717 5.605-11.195 17.154-5.537 25.78l80.601 123.229c3.792 6.7 11.549 10.635 19.632 9.276 12.813-2.169 25.972-3.846 39.411-4.97 13.052-1.090 26.408-1.655 39.981-1.655 112.992 0 215.136 39.499 288.902 103.351 73.092 63.266 118.317 150.534 118.317 246.773 0 96.244-45.225 183.515-118.317 246.778-73.759 63.844-175.902 103.351-288.903 103.351-112.998 0-215.142-39.507-288.9-103.351-73.092-63.264-118.317-150.534-118.317-246.778 0-53.99 14.195-105.107 39.53-150.687 26.5-47.688 65.161-89.438 112.487-122.208zM309.966 374.941c34.937 0 63.432 27.571 63.432 61.374s-28.495 61.369-63.432 61.369-63.437-27.565-63.437-61.369 28.5-61.374 63.437-61.374zM512.009 374.941c34.939 0 63.432 27.571 63.432 61.374s-28.493 61.369-63.432 61.369c-34.937 0-63.437-27.565-63.437-61.369s28.5-61.374 63.437-61.374zM714.064 374.941c34.937 0 63.429 27.571 63.429 61.374s-28.493 61.369-63.429 61.369c-34.939 0-63.44-27.565-63.44-61.369s28.5-61.374 63.44-61.374z"  horiz-adv-x="1024" />

    
    <glyph glyph-name="shuaxin1" unicode="&#59090;" d="M954.505829 435.146267l-161.819886 230.754349c-17.878878 25.301246-50.957251 25.301246-68.836129 0L562.92632 435.146267c-12.515514-17.202337-0.895393-43.521892 18.774271-43.521892l63.471766 0c-1.78479-134.603939-1.78479-305.643574-210.090559-442.273539-5.369759-4.046257-2.68418-13.155081 3.570579-12.147764 398.736057 69.83845 430.921235 372.447481 431.816628 453.413386l66.156946 0C956.296615 391.624375 967.021344 417.94413 954.505829 435.146267zM444.912733 377.455981l-63.472366 0c1.78519 134.609934 1.78519 305.64857 210.092557 442.279135 5.363364 4.047656 2.683181 13.157479-3.575576 12.144166C189.22469 762.047828 157.035514 458.427082 156.144718 378.469893L89.983175 378.469893c-19.665667 0-31.290785-26.315158-18.770673-43.518494l161.81489-230.755947c17.880877-25.300846 50.960849-25.300846 68.841725 0l161.818887 230.755947C475.313521 351.147418 464.583396 377.455981 444.912733 377.455981z"  horiz-adv-x="1024" />

    
    <glyph glyph-name="Back" unicode="&#58999;" d="M818.695-9.892c-7.809-32.224-25.762-57.447-57.447-57.447h-718.091l100.533 473.94c7.54 33.75 25.582 57.447 57.358 57.447h660.823c31.686 0 57.358-25.762 57.358-57.447l-100.533-416.493zM157.962 507.133h646.372l-0 56.46c0 31.776-25.762 57.447-57.447 57.447h-344.684v52.062c0 31.686-25.762 57.447-57.447 57.447l-287.326 0c-31.686 0-57.447-25.762-57.447-57.447v-682.994l100.443 459.578c7.45 31.237 25.851 57.447 57.537 57.447v0 0zM392.020 50.316c0.919-4.136 3.217-7.813 6.894-10.57l70.775-54.69c3.217-2.298 6.894-3.677 10.57-3.677 2.757 0 5.515 0.46 7.813 1.838 5.975 2.757 9.651 9.192 9.651 16.085v33.090c47.337 6.434 92.375 31.251 123.167 73.073 56.528 76.75 44.12 185.67-28.494 247.253-79.967 68.477-199.917 55.609-263.338-26.656-37.685-48.256-46.877-109.38-31.251-164.069 4.596-15.166 21.6-22.519 35.388-15.166v0c11.489 5.975 17.464 19.302 13.787 31.251-11.030 39.983-3.217 84.562 25.736 119.031 43.66 51.473 120.409 61.124 175.559 22.060 60.664-43.2 72.154-127.763 26.656-185.67-20.221-25.736-47.796-42.281-77.669-47.796v23.438c0 6.894-3.677 13.328-9.651 16.085-2.757 1.379-5.515 1.838-7.813 1.838-3.677 0-7.353-1.379-10.57-3.677l-70.775-55.149c-4.596-3.217-6.894-9.192-7.353-14.707 0-0.919 0-1.838 0-2.757 0 0-0.46-0.46-0.919-0.919 0.919 0.46 1.379 0.46 1.838 0.46z"  horiz-adv-x="1085" />

    
    <glyph glyph-name="quanxian" unicode="&#58892;" d="M292.629467-1.188883l-130.195353 0c13.140905 181.370281 164.906541 324.909163 349.568956 324.909163 43.341143 0 84.868901-7.90849 123.218117-22.355196l39.267166 39.267166c-2.039547 0.902599-4.075001 1.810316-6.132968 2.681191-11.344917 4.798513-22.852547 9.048507-34.5014 12.760217 18.548315 10.670526 35.812318 23.852365 51.349922 39.389968 46.263846 46.263846 71.742322 107.774662 71.742322 173.201859 0 65.427197-25.478477 126.938013-71.742322 173.201859-46.263846 46.263846-107.774662 71.742322-173.201859 71.742322s-126.93699-25.478477-173.200835-71.742322c-46.263846-46.263846-71.742322-107.774662-71.742322-173.201859 0-65.427197 25.478477-126.938013 71.742322-173.201859 15.537603-15.537603 32.801607-28.718419 51.349922-39.389968-11.648853-3.71171-23.156483-7.961704-34.5014-12.760217-47.831626-20.231734-90.784918-49.188595-127.663572-86.068273-36.879678-36.879678-65.837562-79.831946-86.068273-127.664595-20.952176-49.535513-31.574604-102.140068-31.574604-156.352314 0-14.129466 11.453392-25.583882 25.583882-25.583882l156.702302 0c14.13049 0 25.583882 11.454416 25.583882 25.583882S306.758934-1.188883 292.629467-1.188883zM318.226653 568.664461c0 106.848525 86.926868 193.776417 193.776417 193.776417s193.776417-86.927891 193.776417-193.776417-86.927891-193.776417-193.776417-193.776417S318.226653 461.815936 318.226653 568.664461zM882.089276 129.579549c-18.228004 43.095538-43.561164 82.21227-75.36807 116.513093l-36.322973-36.322973c51.762334-56.496375 85.30485-129.945654 91.173793-210.958552l-130.22196 0c-14.129466 0-25.583882-11.454416-25.583882-25.583882s11.454416-25.583882 25.583882-25.583882l156.729932 0c14.129466 0 25.583882 11.454416 25.583882 25.583882C913.66388 27.439481 903.040429 80.044036 882.089276 129.579549zM791.547917 344.986626c-9.992041 9.991018-26.189708 9.991018-36.180726 0l-244.12038-244.12038L404.215104 207.896929c-9.992041 9.991018-26.189708 9.991018-36.180726 0-9.991018-9.991018-9.991018-26.189708 0-36.180726l125.122581-125.121557c4.996021-4.994997 11.542424-7.493007 18.090875-7.493007s13.094854 2.49801 18.090875 7.493007l262.211255 262.211255C801.538934 318.795895 801.538934 334.995609 791.547917 344.986626z"  horiz-adv-x="1025" />

    
    <glyph glyph-name="kefu" unicode="&#58914;" d="M369.438609 356.045321c0 0 0-130.227993 143.381571-130.227993 143.407154 0 143.407154 130.227993 143.407154 130.227993S518.526135 230.165356 369.438609 356.045321zM775.93574 409.103748c0 145.30948-117.806079 263.111466-263.11556 263.111466-145.3279 0-263.130909-117.801986-263.130909-263.111466 0-71.191412 28.297486-135.639237 74.140581-183.043896 20.846794-18.754133 43.582611-35.307134 68.604494-48.327682 13.603833-7.040347 28.619828-14.160511 44.360324-20.600177 24.069185-7.203052 49.590442-11.17655 76.025511-11.17655C658.12966 145.956466 775.93574 263.763568 775.93574 409.103748zM512.82018 185.425386c-123.496685 0-223.660966 100.165304-223.660966 223.678362 0 123.508965 100.165304 223.61594 223.660966 223.61594 123.513058 0 223.64664-100.106975 223.64664-223.61594C736.466819 285.59069 636.333238 185.425386 512.82018 185.425386zM847.69304 491.679441C810.672892 642.237459 674.765549 753.894492 512.82018 753.894492c-161.89318 0-297.691029-111.526049-334.794066-262.000156 0 0-92.877317-14.680351-88.772836-108.10002 4.117784-93.394087 102.066607-99.07446 102.066607-99.07446 1.178849-2.988054 21.769816 2.90926 29.163203 4.157693-15.263635 37.045731-23.756053 77.631078-23.756053 120.225175 0 174.555571 141.532457 316.061422 316.093145 316.061422 174.555571 0 316.060399-141.505851 316.060399-316.061422 0-139.306766-90.078575-257.493515-215.164454-299.565726-8.046257-2.746554-16.525372 0.895393-16.525372 0.895393s-21.203928 3.968381-47.784306-3.535523c-13.077853-3.751441-18.700921-17.689894-17.916045-29.925566 0.979304-14.56574 6.496971-25.031093 21.720697-27.344788 19.597337-3.071965 47.458895-6.54916 57.976436 14.407128 2.856048 5.681396 5.953595 16.252149 12.641925 18.511609 96.655364 32.861432 174.013219 107.417475 210.710003 202.201212 0 0 97.414657 11.418051 100.270704 101.223403C937.687704 475.749634 847.69304 491.679441 847.69304 491.679441z"  horiz-adv-x="1024" />

    
    <glyph glyph-name="yonghuzu" unicode="&#59220;" d="M646.198 301.935c59.745 0 106.422 58.982 113.525 143.429 4.13 48.844-5.701 87.725-28.41 112.428-19.614 21.343-48.254 32.16-85.115 32.16-36.861 0-65.501-10.818-85.107-32.153-22.717-24.697-32.528-63.577-28.411-112.436C539.804 360.917 586.481 301.935 646.198 301.935zM745.018 265.686c-4.742 2.166-9.845 2.625-13.309 2.625-5.97 0-11.65-1.325-15.976-3.71-0.409-0.214-40.366-22.014-69.54-22.014-29.12 0-69.146 21.803-69.528 22.014-7.908 4.355-20.981 4.875-29.306 1.079-12.456-5.688-121.662-56.766-121.662-97.724 0-61.27 113.914-83.092 220.496-83.092 106.602 0 220.51 21.822 220.51 83.092C866.702 208.914 757.474 259.992 745.018 265.686zM815.127 440.685c-3.437-40.859-14.629-77.179-31.562-107.151 5.56-1.376 11.318-2.111 17.232-2.111 48.525 0 86.441 47.906 92.217 116.51 3.347 39.679-4.631 71.263-23.077 91.321-15.927 17.344-39.186 26.133-69.14 26.133-2.415 0-4.699-0.146-7.026-0.257C811.887 531.617 819.238 489.335 815.127 440.685zM979.913 221.461c0 33.263-88.732 74.755-98.847 79.385-3.84 1.75-7.997 2.13-10.803 2.13-4.853 0-9.478-1.076-12.997-3.011-0.216-0.112-15.032-8.103-31.882-13.36 63.834-37.728 96.377-77.192 96.87-117.731C956.501 179.529 979.913 196.429 979.913 221.461zM477.303 440.685c3.43-40.859 14.629-77.179 31.556-107.151-5.562-1.376-11.31-2.111-17.226-2.111-48.525 0-86.44 47.906-92.217 116.51-3.347 39.679 4.631 71.263 23.078 91.321 15.928 17.344 39.186 26.133 69.139 26.133 2.409 0 4.7-0.146 7.026-0.257C480.545 531.617 473.192 489.335 477.303 440.685zM312.518 221.461c0 33.263 88.725 74.755 98.841 79.385 3.847 1.75 7.998 2.13 10.81 2.13 4.853 0 9.477-1.076 12.997-3.011 0.208-0.112 15.024-8.103 31.882-13.36-63.841-37.728-96.376-77.192-96.876-117.731C335.922 179.529 312.518 196.429 312.518 221.461zM253.515 299.942l111.589 0c15.465 0 27.985 12.492 27.985 27.915 0 15.521-12.534 27.915-27.985 27.915l-111.589 0L253.515 463.537c0 15.465-12.492 27.985-27.915 27.985-15.521 0-27.915-12.534-27.915-27.985l0-107.765-111.589 0c-15.465 0-27.985-12.492-27.985-27.915 0-15.521 12.534-27.915 27.985-27.915l111.589 0 0-115.414c0-15.465 12.492-27.985 27.915-27.985 15.521 0 27.915 12.534 27.915 27.985L253.515 299.942z"  horiz-adv-x="1024" />

    
    <glyph glyph-name="chupingban-01" unicode="&#58887;" d="M512 890.463c-279.717 0-506.463-226.749-506.463-506.463s226.749-506.463 506.463-506.463 506.463 226.749 506.463 506.463-226.749 506.463-506.463 506.463zM512-99.955c-266.85 0-483.955 217.104-483.955 483.955s217.104 483.955 483.955 483.955 483.955-217.104 483.955-483.955-217.104-483.955-483.955-483.955zM615.143 665.369h-206.278c-25.816 0-46.89-21.124-46.89-46.89v-468.965c0-25.786 21.073-46.89 46.89-46.89h206.278c25.795 0 46.89 21.105 46.89 46.89v468.965c0 25.766-21.096 46.89-46.89 46.89zM483.863 627.87h56.275c5.184 0 9.411-4.208 9.411-9.391 0-5.205-4.234-9.391-9.411-9.391h-56.275c-5.157 0.007-9.335 4.189-9.335 9.349 0 0.014 0 0.027 0 0.046 0 5.182 4.177 9.389 9.335 9.389zM511.981 121.405c-15.525 0-28.137 12.569-28.137 28.115 0 0 0 0 0 0 0 15.546 12.595 28.15 28.136 28.165 0.001 0 0.001 0 0.001 0 15.541 0 28.14-12.6 28.14-28.14 0-15.541-12.6-28.14-28.14-28.14 0 0 0 0 0 0zM643.329 196.405h-262.581v375.184h262.581v-375.184z"  horiz-adv-x="1024" />

    
    <glyph glyph-name="wangyeban-01" unicode="&#58894;" d="M512 897.365c-280.581 0-508.032-227.451-508.032-508.032s227.451-508.032 508.032-508.032 508.032 227.451 508.032 508.032-227.451 508.032-508.032 508.032zM512-96.12c-267.676 0-485.453 217.777-485.453 485.453s217.777 485.453 485.453 485.453 485.453-217.777 485.453-485.453-217.777-485.453-485.453-485.453zM758.523 601.301c-8.462 8.462-18.635 12.695-30.517 12.695h-432.038c-11.882 0-22.057-4.234-30.517-12.695s-12.694-18.635-12.694-30.517v-293.784c0-11.882 4.234-22.057 12.695-30.517s18.635-12.695 30.517-12.695h146.89c0.006-6.844-1.432-13.864-4.318-21.069s-5.765-13.506-8.645-18.903-4.318-9.356-4.318-11.875c0.006-4.679 1.715-8.728 5.13-12.151s7.465-5.13 12.151-5.13h138.255c4.679 0.006 8.728 1.715 12.151 5.13s5.13 7.465 5.13 12.151c0.006 2.343-1.432 6.259-4.318 11.749-10.446 19.777-17.767 42.841-20.608 67.273 9.086-40.799 7.646-33.829 7.646-27.167h146.89c11.882 0 22.057 4.234 30.517 12.695s12.694 18.635 12.694 30.517v293.791l-0.021-0.006c0.021 11.875-4.204 22.049-12.672 30.511zM736.678 346.137c0.006-2.343-0.847-4.369-2.561-6.082-1.519-1.581-3.648-2.562-6.007-2.562-0.028 0-0.051 0-0.079 0h-432.034c-2.343-0.006-4.369 0.853-6.082 2.561s-2.561 3.74-2.561 6.082v224.656c-0.006 2.343 0.847 4.369 2.561 6.082 1.519 1.581 3.648 2.562 6.007 2.562 0.028 0 0.051 0 0.079 0h432.034c2.343 0.006 4.369-0.847 6.082-2.561 1.707-1.715 2.561-3.74 2.561-6.082v-224.656z"  horiz-adv-x="1024" />

    
    <glyph glyph-name="gaojishezhi" unicode="&#58930;" d="M945.152 496.64l19.456 47.104-52.224 32.768c2.048 14.336 2.048 29.696 0 44.032l52.224 32.768-19.456 48.128-60.416-14.336c-8.192 12.288-19.456 22.528-30.72 31.744l13.312 60.416-47.104 19.456-32.768-52.224c-15.36 2.048-29.696 2.048-44.032 0L710.656 798.72l-48.128-19.456 13.312-60.416c-12.288-8.192-22.528-19.456-31.744-31.744l-59.392 14.336-19.456-47.104 51.2-33.792c-2.048-15.36-2.048-29.696 0-44.032l-52.224-31.744 19.456-48.128 60.416 13.312c9.216-12.288 19.456-22.528 31.744-31.744l-14.336-60.416 47.104-19.456L742.4 450.56c14.336-2.048 29.696-2.048 44.032 0l32.768-52.224 47.104 19.456-14.336 60.416c11.264 8.192 22.528 19.456 30.72 30.72l62.464-12.288zM737.28 532.48c-36.864 15.36-54.272 57.344-38.912 94.208s57.344 53.248 94.208 38.912c36.864-15.36 54.272-57.344 38.912-94.208s-57.344-53.248-94.208-38.912z m-53.248-316.416v67.584L604.16 296.96c-5.12 18.432-12.288 36.864-22.528 53.248l47.104 66.56-47.104 47.104-65.536-47.104c-16.384 10.24-34.816 17.408-53.248 22.528l-14.336 79.872h-67.584l-13.312-79.872c-19.456-5.12-36.864-12.288-53.248-21.504l-65.536 47.104-48.128-47.104 46.08-65.536c-10.24-16.384-17.408-34.816-22.528-53.248l-78.848-13.312v-67.584l78.848-14.336c5.12-19.456 12.288-36.864 22.528-54.272l-47.104-65.536 47.104-48.128 65.536 46.08c16.384-10.24 34.816-17.408 53.248-22.528l13.312-79.872h67.584l14.336 79.872c19.456 5.12 36.864 12.288 53.248 22.528l66.56-47.104 47.104 48.128-47.104 65.536c10.24 16.384 17.408 33.792 21.504 53.248l81.92 14.336zM414.72 155.648c-52.224 0-94.208 41.984-94.208 94.208s41.984 94.208 94.208 94.208 94.208-41.984 94.208-94.208-41.984-94.208-94.208-94.208z m0 0"  horiz-adv-x="1024" />

    
    <glyph glyph-name="User" unicode="&#58931;" d="M876.032 126.976c5.12-34.816 34.816-29.696 39.936-45.056 0-9.728-5.12-45.056-19.968-49.664-14.848 0-34.816 5.12-49.664 0-9.728-5.12-19.968-9.728-25.088-19.968-9.728-25.088 9.728-45.056 0-54.784-14.848-9.728-45.056-25.088-54.784-14.848-14.848 14.848-14.848 34.816-45.056 34.816-39.936 0-39.936-39.936-59.904-39.936s-54.784 14.848-54.784 29.696c5.12 19.968 14.848 34.816-5.12 54.784-25.088 19.968-54.784 0-65.024 9.728-14.848 9.728-19.968 34.816-14.848 49.664 5.12 14.848 39.936 14.848 39.936 54.784 0 29.696-34.816 34.816-39.936 54.784-5.12 14.848 5.12 39.936 19.968 45.056 25.088 9.728 39.936-9.728 65.024 9.728 14.848 14.848 9.728 49.664 9.728 59.904 5.12 14.848 25.088 19.968 39.936 19.968 29.696 0 19.968-34.816 59.904-39.936 39.936 0 34.816 14.848 54.784 39.936 25.088 0 45.056-9.728 49.664-19.968 9.728-19.968-9.728-49.664 19.968-69.632 25.088-14.848 49.664 5.12 65.024 0 9.728-5.12 14.848-19.968 19.968-39.936-9.728-29.184-54.784-24.064-49.664-69.12zM696.32 226.816c-119.808-29.696-74.752-204.288 39.936-184.832 115.2 25.088 99.84 209.92-39.936 184.832zM492.032 401.408c-119.808 0-214.528 94.72-214.528 214.528s94.72 214.528 214.528 214.528 214.528-94.72 214.528-214.528c0-114.688-94.72-214.528-214.528-214.528zM666.624 351.744s-79.872 0-74.752-54.784c5.12-59.904-74.752-14.848-89.6-65.024-19.968-59.904 9.728-49.664 25.088-89.6 9.728-25.088-39.936-39.936-34.816-84.992 9.728-59.904 59.904-29.696 74.752-65.024 9.728-29.696-25.088-49.664-104.96-49.664-65.024 0-189.44 0-234.496 5.12 0 0-129.536 5.12-129.536 89.6 0 0-5.12 124.928 74.752 214.528 0 0 84.992 109.568 229.376 109.568l264.192-9.728z"  horiz-adv-x="1024" />

    
    <glyph glyph-name="cehua" unicode="&#59088;" d="M46.545455 104.727273c0-27.927273 18.618182-46.545455 46.545454-46.545455h418.909091c23.272727 0 46.545455 18.618182 46.545455 46.545455s-18.618182 46.545455-46.545455 46.545454h-418.909091c-27.927273 0-46.545455-18.618182-46.545454-46.545454z m0 279.272727c0-27.927273 18.618182-46.545455 46.545454-46.545455h651.636364c27.927273 0 46.545455 18.618182 46.545454 46.545455s-18.618182 46.545455-46.545454 46.545455h-651.636364c-27.927273 0-46.545455-18.618182-46.545454-46.545455z m0 279.272727c0-27.927273 23.272727-46.545455 46.545454-46.545454h837.818182c23.272727 0 46.545455 18.618182 46.545454 46.545454s-23.272727 46.545455-46.545454 46.545455h-837.818182c-27.927273 0-46.545455-18.618182-46.545454-46.545455z"  horiz-adv-x="1024" />

    
    <glyph glyph-name="xiangmumoxing" unicode="&#58972;" d="M1025.52064 325.58592c1.75104 38.92224-35.34848 53.05344-35.34848 53.05344l-205.14304 86.65088s0.5632 150.48192 0 190.976c-0.57856 40.81152-37.13024 54.83008-37.13024 54.83008s-162.2784 64.65536-210.45248 88.42752c-25.06752 12.38528-51.2768 0-51.2768 0s-152.6272-67.5584-199.82848-86.656c-43.13088-17.42848-42.4704-54.83008-42.4704-54.83008v-191.58528S109.3632 408.30976 52.89472 386.0992C-1.10592 364.85632 0.42496 320.26624 0.42496 320.26624s0.5376-152.91904 0-192.74752c-0.55808-43.00288 38.32832-56.59136 38.32832-56.59136s130.36544-65.87904 192.75264-94.3104c46.1056-20.992 76.04736-0.57856 76.04736-0.57856l204.82048 100.80768s161.9456-76.2624 200.15104-100.1984c44.20608-27.71968 74.2656-4.7104 74.2656-4.7104s180.54144 91.47904 208.70144 104.33024c30.11072 13.75744 30.11072 47.73376 30.11072 47.73376s-1.8432 162.66752-0.08192 201.58464zM272.16896 249.53344L84.72576 331.776l187.43808 82.23744 190.976-81.3312-190.97088-83.1488z m210.42688-122.01984l-180.37248-90.18368v160.9472l180.37248 77.79328v-148.5568z m29.6192 442.10176L309.2992 656.26624l202.92096 89.6 210.90304-89.6-210.90816-86.65088z m32.29696-53.04832l178.59072 77.7984v-130.85696l-178.59072-79.54944v132.608z m213.10976-267.0336L571.0592 331.776l178.61632 82.23744 194.53952-82.23744-186.59328-82.24256z m206.01856-127.3344l-176.86016-84.86912v160.9472l176.86016 77.79328v-153.87136z"  horiz-adv-x="1026" />

    
    <glyph glyph-name="Cate" unicode="&#58883;" d="M511.999-40.4l-443.578 203.416c1.503-0.949-39.268 17.438-68.257 33.906 0-24.598 6.217-69.699 29.3-81.873l434.285-194.199c38.372-18 54.933-18 96.529 0l434.285 194.199c21.414 9.947 29.272 56.686 29.272 81.873-27.923-13.895-67.473-33.73-68.238-33.906l-443.598-203.416zM29.464 521.924l434.281-194.211c38.376-17.994 54.93-17.994 96.527 0l434.281 194.211c31.985 14.833 33.062 77.901 0 95.903l-434.275 228.121c-34.134 20.116-58.153 19.083-96.529 0l-434.285-228.124c-33.061-21.165-34.137-77.876 0-95.9zM511.999 807.198c0.465-0.145 0.878-0.39 1.208-0.641l442.396-236.679-443.602-185.946-443.58 185.943 443.578 237.323zM513.2 806.557l-1.207 0.641c2.591-2.976 2.538-1.673 1.207-0.641zM29.464 318.516l434.281-194.213c38.376-18.006 54.93-18.006 96.527 0l434.281 194.213c21.425 9.926 29.277 56.656 29.277 81.818-27.924-13.904-67.467-33.707-68.232-33.873l-443.599-203.447-443.578 203.445c1.503-0.943-39.268 17.408-68.257 33.875-0.003-24.602 6.217-69.67 29.3-81.818z"  horiz-adv-x="1024" />

    
    <glyph glyph-name="moxing" unicode="&#58920;" d="M54.443 130.261l426.667-213.333c2.787-1.41 6.076-2.236 9.557-2.236s6.77 0.826 9.681 2.292l426.543 213.277c7.038 3.584 11.776 10.775 11.776 19.072l-0 512c-0.069 4.162-1.362 8.009-3.533 11.213-0.478 0.819-1.416 1.502-2.27 2.44-1.195 1.365-2.048 2.987-3.584 4.011-0.768 0.512-1.707 0.512-2.517 0.939-0.597 0.299-0.896 0.981-1.536 1.237l-426.667 170.667c-2.342 0.972-5.063 1.536-7.915 1.536s-5.572-0.564-8.055-1.587l-426.526-170.615c-0.597-0.299-0.896-0.939-1.493-1.28-0.811-0.384-1.749-0.384-2.517-0.896-1.536-1.024-2.432-2.645-3.627-4.011-0.811-0.939-1.749-1.621-2.389-2.688-2.092-3.15-3.347-7.014-3.373-11.169l0.002-511.797c0-8.298 4.738-15.489 11.655-19.016zM85.333 629.803l384-153.6v-505.685l-384 192v467.285zM512-29.483v505.685l384 153.6v-467.285l-384-192zM490.667 809.003l369.237-147.669-369.237-147.669-369.237 147.669 369.237 147.669z"  horiz-adv-x="1024" />

    
    <glyph glyph-name="yasuowenjian" unicode="&#58905;" d="M99.556 216.889h839.11V13.34a84.38 84.38 0 0 0-84.494-84.451H184.05a84.565 84.565 0 0 0-84.494 84.451V216.89zM99.556 536.889h839.11v-320H99.557zM99.556 740.437A84.38 84.38 0 0 0 184.05 824.89h670.122a84.565 84.565 0 0 0 84.495-84.452V536.89H99.556V740.437zM390.016 824.889h258.19v-896h-258.19zM345.998 333.696h346.226v86.386H345.998v-86.386z m-52.807 139.193h451.84v-192h-451.84v192z"  horiz-adv-x="1024" />

    
    <glyph glyph-name="quanxian1" unicode="&#58898;" d="M618.408704 464.2304a342.528 342.528 0 0 0 134.1952 27.1872c4.608 0 9.1904-0.2048 13.7984-0.2048 21.8112 55.1936 27.392 120.3712 16.4096 183.7568C757.416704 820.3264 620.200704 917.504 476.021504 891.904c-144-25.6-265.6-137.5744-240-282.9312 5.4016-31.3856 20.608-80.384 38.6048-115.7632L13.019904 115.9168c-9.6-13.7984-15.2064-38.8096-12.2112-55.808l11.392-64.5632c-10.8032 62.1824 2.9952-22.4 11.392-22.1952l86.1952-1.2032c16.5888 2.9952 37.4016 16.9984 46.592 31.2064l103.3984 161.7408 0.9984 0.9984 90.3936-7.1936 120.7808 189.3376c0.4096 0 0.8192-0.2048 1.2032-0.2048 10.8032 14.7968 22.6048 28.8 35.7888 42.0096a337.8432 337.8432 0 0 0 109.4656 74.1888zM69.621504 76.1344l-12.8-5.4016 1.408 14.0032 250.5984 363.6992 15.0016-14.0032-254.208-358.2976zM450.421504 745.344c39.6032 56.9856 117.5808 71.1936 173.9776 30.976a127.232 127.232 0 0 0 30.7968-175.9488c-39.6032-56.9856-80-16.7936-136.6016 23.1936-56.3712 40.192-107.776 64.5888-68.1728 121.7792z m0 0M749.224704 421.4272c-151.808 0-274.7904-122.9568-274.7904-274.7392 0-151.7568 122.9824-274.688 274.7904-274.688S1024.015104-5.0432 1024.015104 146.688c0 151.7824-123.008 274.7392-274.7904 274.7392z m158.7968-387.4816c0-41.0112-78.592-50.4064-152.3968-50.4064s-153.3952 9.3952-153.3952 50.4064v11.3664c0 30.208 54.4 60.8 100.608 77.3888 3.4048 1.2032 19.4048 10.0096 10.3936 33.3824-22.9888 23.3984-40.192 61.3888-40.192 98.7648 0 57.1904 37.8112 87.168 82.2016 87.168 44.2112 0 82.4064-29.9776 82.4064-87.168 0-37.1968-17.408-74.9824-40.192-98.5856h0.2048c-8.8064-26.5728 5.1968-32.9728 7.3984-33.5872 48.5888-16 103.1936-46.4128 103.1936-77.3888l-0.2304-11.3408z m0 0"  horiz-adv-x="1024" />

    
    <glyph glyph-name="Content" unicode="&#58884;" d="M456.585 60.401h-312.618v556.289l121.521 118.791h421.126v-216.985c0-22.082 17.902-39.983 39.983-39.983s39.983 17.901 39.983 39.983v296.952h-533.684l-168.896-165.101v-669.913h392.585c22.082 0 39.983 17.901 39.983 39.983 0.001 22.083-17.901 39.984-39.983 39.984zM879.493 191.908c-2.373-53.877-33.595-100.266-78.589-124.095-13.118 25.659-39.806 43.231-70.606 43.231-43.764 0-79.244-35.483-79.244-79.246 0-43.762 35.479-79.245 79.244-79.245 32.859 0 61.043 19.999 73.051 48.486 80.761 29.253 138.467 106.637 138.467 197.493 0 4.649-0.155 9.263-0.445 13.837l-61.878-20.461zM663.894 302.066c0 43.765-35.482 79.247-79.246 79.247s-79.244-35.482-79.244-79.247c0-21.301 8.405-40.636 22.089-54.881-3.71-15.619-5.669-31.902-5.669-48.655 0-75.342 39.676-141.414 99.269-178.466l15.847 65.107c-32.365 27.117-52.947 67.83-52.947 113.359 0 8.276 0.679 16.396 1.992 24.306 43.149 0.715 77.909 35.913 77.909 79.23zM647.003 390.696l36.227-52.517c14.448 5.183 31.118 8.179 48.487 8.179 0.036 0 0.072-0 0.109-0 27.395 0 53.046-7.457 75.046-20.454-3.392-8.483-5.36-18.316-5.36-28.608 0-0.030 0-0.061 0-0.091-0-43.759 35.48-79.241 79.244-79.241 43.765 0 79.245 35.482 79.245 79.246 0 43.764-35.48 79.244-79.245 79.244-10.258 0-20.055-1.95-29.045-5.489-33.99 23.676-75.318 37.571-119.883 37.571-30.187 0-58.89-6.371-84.825-17.839zM211.147 241.919c0-0 0-0 0-0 0-20.555 16.663-37.218 37.218-37.218 20.555 0 37.218 16.663 37.218 37.218 0 0 0 0 0 0 0 20.555-16.663 37.218-37.218 37.218-20.555 0-37.218-16.663-37.218-37.218zM333.465 241.919c0-20.47 16.748-37.218 37.218-37.218h67.465c0.696 25.802 4.792 50.752 11.831 74.436h-79.296c-20.47 0-37.218-16.748-37.218-37.218zM211.147 385.2c0-0 0-0 0-0 0-20.555 16.663-37.218 37.218-37.218 20.555 0 37.218 16.663 37.218 37.218 0 0 0 0 0 0 0 20.555-16.663 37.218-37.218 37.218-20.555 0-37.218-16.663-37.218-37.218zM546.676 422.418h-175.994c-20.47 0-37.218-16.748-37.218-37.218 0-20.47 16.748-37.218 37.218-37.218h110.095c29.973 48.073 72.234 85.972 122.445 109.868zM211.147 528.482c0-0 0-0 0-0 0-20.555 16.663-37.218 37.218-37.218 20.555 0 37.218 16.663 37.218 37.218 0 0 0 0 0 0 0 20.555-16.663 37.218-37.218 37.218-20.555 0-37.218-16.663-37.218-37.218zM619.434 528.482c0 20.47-16.748 37.218-37.218 37.218h-211.534c-20.47 0-37.218-16.748-37.218-37.218 0-20.47 16.748-37.218 37.218-37.218h211.534c20.47 0 37.218 16.748 37.218 37.218z"  horiz-adv-x="1024" />

    


  </font>
</defs>
</svg>
