<?xml version="1.0" encoding="UTF-8"?>
<svg width="75px" height="69px" viewBox="0 0 75 69" version="1.1" xmlns="http://www.w3.org/2000/svg" xmlns:xlink="http://www.w3.org/1999/xlink">
    <!-- Generator: Sketch 51.3 (57544) - http://www.bohemiancoding.com/sketch -->
    <title>空</title>
    <desc>Created with Sketch.</desc>
    <defs></defs>
    <g id="分类页" stroke="none" stroke-width="1" fill="none" fill-rule="evenodd" fill-opacity="0.25" opacity="0.65">
        <g id="搜索结果页_空状态" transform="translate(-937.000000, -244.000000)" fill="#000000" fill-rule="nonzero">
            <g id="空" transform="translate(937.000000, 244.000000)">
                <path d="M15.0773163,14.0455779 C15.0773163,14.5060897 15.3116785,14.8898489 15.7022828,15.1201065 C16.0928871,15.3503621 16.5616115,15.3503621 17.03034,15.1201065 C17.4209443,14.889851 17.6553065,14.506091 17.6553065,14.0455779 C17.6553065,13.3548118 17.03034,12.7407916 16.3272493,12.7407916 C15.7022828,12.7407916 15.0773135,13.3548071 15.0773135,14.0455779 L15.0773163,14.0455779 Z M66.1683784,12.2035306 C65.1528069,12.2035306 64.3715996,13.0478017 64.3715996,14.0455779 C64.3715996,15.043354 65.1528069,15.8876251 66.1683784,15.8876251 C67.18395,15.8876251 67.9651573,15.043354 67.9651573,14.0455779 C68.043278,12.9710492 67.18395,12.2035306 66.1683784,12.2035306 Z M66.1683784,15.3503641 C65.3871712,15.3503641 64.7621998,14.7363486 64.7621998,13.9688253 C64.7621998,13.2013068 65.3871663,12.5872865 66.1683784,12.5872865 C66.9495857,12.6640384 67.4964356,13.201302 67.5745571,13.9688253 C67.5745571,14.7363439 66.9495906,15.3503641 66.1683784,15.3503641 Z M49.2942902,52.9588339 C48.513083,50.733024 47.8099971,48.5072209 47.0287829,46.281411 C45.93509,42.9043267 44.7632756,39.6039882 43.5914682,36.226931 C43.357106,35.536165 42.7321395,35.0756498 42.0290536,35.0756498 L30.5453087,35.0756498 L30.5453087,34.9988979 C30.6234295,34.9221461 30.467188,34.8453942 30.3890673,34.7686417 C30.2328258,34.6918898 29.9984629,34.6918898 29.8422215,34.8453935 C29.7641008,34.9221454 29.7641008,34.9988972 29.68598,34.9988972 L12.2650074,34.9988972 C11.9525238,34.9988972 11.6400409,34.9221454 11.4056787,35.0756491 C10.8588329,35.2291528 10.54635,35.6129127 10.3119857,36.1501778 L10.3901065,36.1501778 C9.29641353,39.2202587 8.280842,42.2903329 7.26527047,45.4371325 L4.99976316,52.268074 L4.92164243,52.4215777 C4.76540097,52.8820895 4.60915883,53.2658488 4.68728025,53.8031165 L4.68728025,67.081203 C4.68728025,67.4649629 4.68728025,68.1557316 5.23412603,68.61624 C5.62473036,69 6.17157614,69 6.56218323,69 C6.64030396,69 6.64030396,69 6.64030396,68.9232481 L47.7318936,68.9232481 C48.0443772,68.9232481 48.5912223,68.8464963 48.9818294,68.5394882 C49.294313,68.2324801 49.4505545,67.8487222 49.4505545,67.3114545 L49.4505545,53.8798629 C49.3724338,53.5728548 49.3724338,53.3425993 49.294313,52.9588393 L49.2942902,52.9588339 Z M48.2787187,54.1868677 L48.2787187,67.311449 C48.2787187,67.6184571 48.200598,67.695209 48.200598,67.695209 L48.1224773,67.7719608 C48.0443565,67.8487127 47.8881144,67.8487127 47.7318729,67.8487127 L6.56219635,67.8487127 C6.32783417,67.8487127 6.01535057,67.9254645 5.93722984,67.7719608 L5.85910911,67.695209 C5.70286766,67.5417053 5.70286766,67.311449 5.70286766,67.004443 L5.70286766,53.8030751 L4.9997818,53.8030751 L5.70286766,53.7263233 C5.62474693,53.4193152 5.78098838,53.1123078 5.85910911,52.8052997 L5.93722984,52.651796 L8.20273715,45.8208545 C9.2964301,42.7507735 10.3120016,39.6806993 11.3275732,36.5338997 L11.0150896,36.380396 L11.4056939,36.4571479 C11.4838146,36.3036442 11.5619353,36.1501398 11.7181775,36.1501398 L28.7485085,36.1501398 C28.4360249,36.4571479 28.123542,36.7641553 27.8110584,37.1479159 C27.654817,37.3014196 27.654817,37.454924 27.8110584,37.6851796 C27.9672999,37.8386833 28.123542,37.8386833 28.3579042,37.6851796 C28.90475,37.2246678 29.2953543,36.6874034 29.6859614,36.226895 L42.1071633,36.226895 C42.2634047,36.226895 42.4977676,36.3803987 42.4977676,36.5339031 L45.9350824,46.5883832 C46.7162897,48.8141931 47.4193755,51.0399962 48.2005897,53.2658061 C48.2787104,53.4193098 48.2787104,53.649566 48.2787104,53.8798216 L48.2787104,54.1868297 L48.2787187,54.1868677 Z M46.6381827,53.0355864 L33.9044952,53.0355864 C33.5138909,53.0355864 33.0451665,53.1123383 32.6545594,53.4960982 C32.2639551,53.8798582 32.2639551,54.4938744 32.1858343,54.724132 C32.1077136,55.8754132 31.6389886,56.9499419 30.9358986,57.8709655 C30.0765699,58.8687416 28.7485127,59.5595076 27.3423409,59.5595076 C26.248648,59.6362595 25.0768336,59.2524995 24.1393835,58.5617315 C22.8894477,57.7174604 22.1082405,56.2591691 22.030119,54.8008845 C21.9519983,54.4938764 21.9519983,53.8031084 21.4832733,53.4193457 C21.0926689,53.1123376 20.6239446,53.0355858 20.2333375,53.0355858 L7.49964991,53.0355858 C7.18716631,53.0355858 6.8746834,53.3425939 6.8746834,53.6496013 C6.8746834,53.9566094 7.187167,54.2636168 7.49964991,54.2636168 L20.1552506,54.2636168 C20.3896128,54.3403686 20.5458549,54.3403686 20.5458549,54.3403686 L20.6239756,54.4171205 C20.7020964,54.4938724 20.7802171,54.8008805 20.7802171,55.031136 C20.8583378,56.8731832 21.7957886,58.6384779 23.3582032,59.7130066 C24.4518961,60.4805252 25.7018319,60.9410403 27.0298822,60.9410403 C27.1861237,60.9410403 27.2642444,60.8642885 27.4204865,60.8642885 C29.1391439,60.7875366 30.7015654,60.0200174 31.7952514,58.7919837 C32.8108229,57.717455 33.2795445,56.335923 33.357666,54.9543842 C33.4357867,54.8776323 33.4357867,54.5706242 33.5139074,54.4938724 L33.5920282,54.4171205 C33.6701489,54.3403686 33.7482696,54.3403686 33.9826325,54.3403686 L46.6382331,54.3403686 C46.9507167,54.3403686 47.2631997,54.0333606 47.2631997,53.7263531 C47.2631997,53.3425932 46.9507161,53.0355871 46.6382331,53.0355871 L46.6381827,53.0355864 Z M71.011858,29.0122132 C71.011858,29.0122132 70.0744079,32.0822942 68.2776291,32.5428026 C68.2776291,32.5428026 70.5431364,33.4638262 71.011858,35.7663886 C71.011858,35.7663886 71.3243416,32.4660569 74.0585726,32.3893043 C74.0585726,32.3125525 71.1681009,30.8542672 71.011858,29.01222 L71.011858,29.0122132 Z M17.1865808,5.21913154 C17.1865808,5.21913154 17.4990644,2.6863183 19.4520881,2.60956577 C19.4520881,2.68631762 17.1865808,1.45828456 17.1865808,0 C17.1865808,0 16.4834949,2.37930817 14.9991949,2.6863183 C15.0773156,2.76307016 16.8740951,3.45383685 17.1865808,5.21913154 Z M73.902316,23.9466139 C73.902316,23.9466139 73.5898324,25.0978951 72.8867444,25.2514002 C72.8867444,25.2514002 73.7460731,25.5584083 73.902316,26.4794339 C73.902316,26.4794339 74.0585574,25.2514002 74.9960089,25.2514002 C75.0741296,25.1746483 73.9804374,24.6373847 73.902316,23.9466139 Z M34.6075534,31.6217993 C35.4668821,31.2380394 36.3262108,30.5472707 37.1074181,29.8565047 C37.1855388,29.7797528 37.2636595,29.6262491 37.2636595,29.5494966 C37.1855388,29.3959929 37.1074181,29.319241 37.0292967,29.2424885 C36.9511759,29.2424885 36.7949338,29.3192403 36.7168131,29.3192403 C35.9356058,30.0100063 35.1543985,30.5472741 34.2950698,31.0077825 C34.1388284,31.0845343 34.0607076,31.3147906 34.1388284,31.4682943 C34.2950698,31.621798 34.451312,31.6985498 34.6075534,31.621798 L34.6075534,31.6217993 Z M24.1393525,27.8609524 C24.2955939,27.7842005 24.4518361,27.6306968 24.4518361,27.4771924 C24.3737153,27.1701843 24.3737153,26.9399288 24.3737153,26.6329213 L24.6861989,25.5583927 C24.8424404,25.2513846 24.9986825,25.021129 25.2330447,24.7908741 C25.3892862,24.6373704 25.3892862,24.483866 25.2330447,24.2536105 C25.0768033,24.1001067 24.9205611,24.1001067 24.6861989,24.2536105 C23.8268702,25.1746341 23.4362631,26.3259153 23.6706274,27.5539422 C23.7487481,27.7841978 23.983111,27.9377022 24.1393525,27.8609503 L24.1393525,27.8609524 Z M38.5135553,28.5517184 C39.1385218,27.9377029 39.7634911,27.1701796 40.3103341,26.402661 C40.3884548,26.3259092 40.3884548,26.2491573 40.3884548,26.1724055 C40.3103341,26.0189018 40.3103341,26.0189018 40.2322134,25.9421499 C40.1540926,25.865398 40.0759719,25.865398 39.9978505,25.865398 C39.9197298,25.9421499 39.841609,25.9421499 39.7634876,26.0189018 C39.1385211,26.7864203 38.5916732,27.4771863 37.9667088,28.1679591 C37.8104673,28.3214628 37.8104673,28.4749672 38.0448295,28.7052228 C38.201071,28.7052228 38.3573131,28.7052228 38.5135546,28.5517191 L38.5135553,28.5517184 Z M26.3266831,23.9466003 C26.4048038,23.9466003 26.4048038,23.9466003 26.4829246,23.8698485 C27.3422533,23.4860885 28.4359462,23.3325848 29.3733963,23.5628404 C29.5296378,23.6395922 29.7640007,23.4860885 29.7640007,23.3325848 C29.8421214,23.1790811 29.6858799,22.9488249 29.5296385,22.9488249 C28.5140669,22.6418168 27.2641312,22.7953212 26.1704451,23.255833 C26.0142037,23.3325848 25.9360829,23.4860885 26.0142037,23.6395929 C26.0142037,23.7930966 26.1704451,23.946601 26.3266873,23.946601 L26.3266831,23.9466003 Z M31.9513838,27.4004372 C31.9513838,27.5539409 32.0295045,27.6306927 32.1076252,27.7074453 C32.2638667,27.7841971 32.3419874,27.7841971 32.4201088,27.6306934 C32.4982296,27.5539416 32.5763503,27.4771897 32.5763503,27.3236853 C32.4201088,25.7886482 31.795143,24.637367 30.9358143,23.7930959 C30.7795729,23.6395922 30.54521,23.7163441 30.3889685,23.8698478 C30.2327271,24.0233515 30.2327271,24.1768559 30.4670893,24.4071115 C31.326418,25.021127 31.7951465,26.0189011 31.9513824,27.4004399 L31.9513838,27.4004372 Z M27.4984975,31.3915418 C27.4203768,31.5450455 27.4203768,31.7753017 27.6547389,31.8520536 C28.4359462,32.2358135 29.1390321,32.4660691 29.9202462,32.6195721 L29.998367,32.6195721 C30.1546084,32.6195721 30.3108506,32.4660684 30.3108506,32.312564 C30.3889713,32.1590603 30.1546091,32.0055559 29.998367,31.9288041 C29.2952811,31.8520522 28.6703098,31.621796 27.9672239,31.3147885 C27.8109825,31.1612848 27.6547403,31.2380367 27.4984989,31.3915404 L27.4984975,31.3915418 Z M32.6544765,29.0889793 C32.5763558,29.0122275 32.4982351,28.9354756 32.4201144,28.9354756 C32.2638729,28.8587238 32.02951,29.0889793 32.02951,29.2424837 C31.9513893,30.1635073 31.7170264,31.0077784 31.4826643,31.8520495 C31.3264228,31.8520495 31.1701807,31.9288013 31.0920599,31.9288013 C30.9358185,31.9288013 30.7795763,32.0823051 30.7795763,32.2358094 C30.7795763,32.3893131 30.9358178,32.5428175 31.0920599,32.5428175 L31.2483014,32.5428175 C31.0920599,32.8498256 30.9358178,33.156833 30.7795763,33.5405937 C30.7014556,33.6940974 30.7014556,33.9243536 30.9358178,34.0011055 C31.0920592,34.0778573 31.3264221,34.0778573 31.4045428,33.8476018 C31.638905,33.4638418 31.7951472,33.0033307 32.0295093,32.5428155 C32.3419929,32.4660636 32.6544759,32.4660636 32.888838,32.3893118 C33.0450795,32.3125599 33.2013216,32.1590562 33.1232002,32.0055518 C33.0450795,31.8520481 32.888838,31.6985437 32.7325959,31.7752963 C32.5763544,31.8520481 32.4201123,31.8520481 32.3419916,31.8520481 C32.5763537,31.0845296 32.7325959,30.2402585 32.8888373,29.3959874 C32.7325959,29.2424837 32.6544752,29.1657319 32.6544752,29.0889793 L32.6544765,29.0889793 Z M24.5299181,28.6284675 C24.3736767,28.7052194 24.3736767,28.9354756 24.4517974,29.1657312 C24.8424017,29.7029948 25.3111261,30.2402599 25.9360905,30.7007683 L26.561057,31.2380319 C26.7172985,31.3915356 26.9516614,31.3147838 27.1079028,31.1612801 C27.2641443,31.0077764 27.1860235,30.7775201 27.0297821,30.6240164 C26.7954199,30.4705127 26.6391778,30.3170083 26.4048156,30.0867528 C25.8579698,29.626241 25.3892441,29.1657292 25.0767584,28.6284682 C24.9205169,28.5517163 24.6861541,28.5517163 24.5299126,28.6284682 L24.5299181,28.6284675 Z M43.7476489,20.3392618 C43.9038903,20.4160137 44.1382532,20.4160137 44.2163739,20.1857581 C44.9975812,18.650721 45.4663097,17.5761923 45.4663097,17.5761923 C45.5444304,17.4226886 45.5444304,17.1924324 45.3100682,17.1156805 C45.2319475,17.0389287 45.1538268,17.0389287 44.9975846,17.1156805 C44.9194639,17.1924324 44.8413432,17.1924324 44.8413432,17.2691842 C44.8413432,17.2691842 44.4507389,18.3437129 43.5914074,19.87875 C43.5132867,20.0322537 43.5914074,20.26251 43.7476489,20.3392618 Z M41.1696628,24.9443799 C41.3259042,24.9443799 41.4040256,24.867628 41.4821464,24.7908762 C42.1071129,23.8698525 42.7320822,22.8720764 43.2789252,21.9510528 C43.3570459,21.8743009 43.3570459,21.7975491 43.3570459,21.6440447 C43.2789252,21.5672928 43.2789252,21.490541 43.2008045,21.4137891 C43.1226837,21.3370373 43.044563,21.3370373 42.8883209,21.3370373 C42.8102001,21.4137891 42.7320794,21.4137891 42.6539587,21.490541 C42.1071129,22.4883171 41.5602657,23.4093407 40.9353013,24.3303643 C40.8571806,24.4071162 40.8571806,24.5606199 40.8571806,24.6373724 C40.9353013,24.9443805 41.0915427,24.9443805 41.1696642,24.9443805 L41.1696628,24.9443799 Z M47.1849705,17.7297096 L46.7943662,22.1045701 L49.2942309,18.880984 L47.1849664,17.7297028 L47.1849705,17.7297096 Z M39.0604121,13.047839 L44.919477,15.6574048 L54.450221,8.21244301 L47.1849636,15.9644149 L54.450221,18.3437231 L58.5125071,3.91438257 L39.0604466,13.0479001 L39.0604121,13.047839 Z M24.8424521,40.4483237 C25.6236594,39.91106 26.3267453,39.4505475 27.029838,38.9132866 C27.1079587,38.8365347 27.1860795,38.7597829 27.1860795,38.6062785 C27.1079587,38.4527748 27.1079587,38.3760222 26.9517173,38.2992704 C26.7954758,38.2225185 26.7173551,38.2225185 26.6392337,38.3760222 C25.9361478,38.9132859 25.2330551,39.4505509 24.4518478,39.9110593 C24.2956063,39.9878112 24.2174856,40.2180674 24.3737271,40.448323 C24.4518478,40.448323 24.6862107,40.5250748 24.8424521,40.448323 L24.8424521,40.4483237 Z M23.5925163,41.0623392 L23.2800327,40.4483237 C21.7957396,41.2925948 20.7020467,41.6763574 20.7020467,41.6763574 L20.9364088,42.2903729 C21.0926503,42.2903729 22.1082232,41.906613 23.5925163,41.0623392 Z M2.18738589,19.341542 C2.18738589,19.341542 1.48430004,21.7208501 0,22.0278603 C0,22.0278603 1.79677881,22.7186263 2.18738589,24.483921 C2.18738589,24.483921 2.4998695,21.9511077 4.45289321,21.8743552 C4.53101394,21.9511071 2.26550731,20.7998265 2.18738589,19.341542 Z M58.981208,43.2114101 C58.981208,43.2114101 58.6687244,44.3626913 57.9656365,44.5161964 C57.9656365,44.5161964 58.8249652,44.8232045 58.981208,45.7442301 C58.981208,45.7442301 59.1374494,44.5161964 60.0749009,44.5161964 C60.0749009,44.5161964 58.981208,43.9021809 58.981208,43.2114101 Z" id="Shape"></path>
            </g>
        </g>
    </g>
</svg>